<svg width="394" height="266" viewBox="0 0 394 266" fill="none" xmlns="http://www.w3.org/2000/svg">
<g filter="url(#filter0_b_214_821)">
<path d="M393.571 50C393.571 22.3858 371.186 0 343.571 0H-0.000183105V216C-0.000183105 243.614 22.3856 266 49.9998 266H393.571V50Z" fill="url(#paint0_linear_214_821)" fill-opacity="0.5"/>
</g>
<path d="M230.761 16.8083H229.881C229.812 16.8072 229.745 16.785 229.689 16.7447C229.633 16.7043 229.591 16.6478 229.569 16.5828C229.5 16.389 229.419 16.1995 229.328 16.0152C229.297 15.9519 229.286 15.8806 229.297 15.811C229.308 15.7414 229.341 15.677 229.39 15.6265L230.013 15.0045C230.077 14.9404 230.113 14.8537 230.113 14.7634C230.113 14.6731 230.077 14.5865 230.013 14.5224L228.665 13.1618C228.634 13.1305 228.597 13.1057 228.556 13.0888C228.516 13.0718 228.472 13.0631 228.428 13.0631C228.384 13.0631 228.34 13.0718 228.299 13.0888C228.258 13.1057 228.221 13.1305 228.19 13.1618L227.551 13.7993C227.501 13.8485 227.436 13.8808 227.366 13.892C227.297 13.9031 227.225 13.8925 227.162 13.8615C226.983 13.7738 226.798 13.6984 226.609 13.6361C226.543 13.6123 226.486 13.569 226.446 13.512C226.405 13.455 226.383 13.3871 226.383 13.3173V12.4154C226.383 12.3715 226.374 12.328 226.357 12.2874C226.34 12.2469 226.316 12.21 226.285 12.179C226.254 12.1479 226.217 12.1233 226.176 12.1065C226.135 12.0897 226.092 12.0811 226.048 12.0811H224.139C224.05 12.081 223.964 12.116 223.9 12.1785C223.836 12.241 223.799 12.326 223.797 12.4154V12.4154V13.3173C223.796 13.3871 223.774 13.455 223.734 13.512C223.693 13.569 223.636 13.6123 223.571 13.6361C223.382 13.6998 223.197 13.7751 223.017 13.8615C222.954 13.8925 222.883 13.9031 222.813 13.892C222.743 13.8808 222.679 13.8485 222.628 13.7993L221.997 13.1618C221.933 13.0982 221.846 13.0625 221.755 13.0625C221.665 13.0625 221.578 13.0982 221.514 13.1618L220.166 14.4758C220.103 14.5399 220.067 14.6265 220.067 14.7168C220.067 14.8071 220.103 14.8937 220.166 14.9578L220.79 15.5798C220.841 15.629 220.875 15.6936 220.886 15.7638C220.897 15.8339 220.885 15.9058 220.852 15.9686C220.763 16.1529 220.685 16.3425 220.618 16.5362C220.594 16.6018 220.551 16.6585 220.494 16.6988C220.437 16.7391 220.369 16.761 220.299 16.7616H219.418C219.329 16.7616 219.243 16.7966 219.179 16.8591C219.115 16.9215 219.078 17.0066 219.076 17.096V19.0008C219.078 19.0902 219.115 19.1752 219.179 19.2377C219.243 19.3002 219.329 19.3352 219.418 19.3352H220.275C220.347 19.3351 220.416 19.3577 220.473 19.3997C220.531 19.4416 220.573 19.5007 220.595 19.5684C220.662 19.7706 220.74 19.9649 220.828 20.1515C220.861 20.2146 220.872 20.2862 220.861 20.356C220.85 20.4259 220.816 20.4904 220.766 20.5403L220.166 21.139C220.135 21.17 220.11 21.207 220.093 21.2477C220.076 21.2884 220.067 21.332 220.067 21.3761C220.067 21.4202 220.076 21.4638 220.093 21.5045C220.11 21.5452 220.135 21.5822 220.166 21.6132V21.6132L221.514 23.0283C221.578 23.0919 221.665 23.1276 221.755 23.1276C221.846 23.1276 221.933 23.0919 221.997 23.0283L222.581 22.4374C222.632 22.3866 222.698 22.3532 222.77 22.342C222.841 22.3309 222.914 22.3425 222.979 22.3752C223.169 22.4716 223.367 22.5522 223.571 22.6162C223.637 22.6414 223.694 22.6861 223.734 22.7444C223.775 22.8028 223.796 22.8719 223.797 22.9428V23.7747C223.799 23.8641 223.836 23.9491 223.9 24.0116C223.964 24.0741 224.05 24.1091 224.139 24.109H226.048C226.092 24.109 226.135 24.1004 226.176 24.0836C226.217 24.0668 226.254 24.0422 226.285 24.0111C226.316 23.9801 226.34 23.9432 226.357 23.9026C226.374 23.8621 226.383 23.8186 226.383 23.7747V22.9117C226.382 22.8396 226.405 22.7692 226.447 22.7106C226.489 22.652 226.548 22.6081 226.617 22.5851C226.82 22.5196 227.018 22.439 227.209 22.3441C227.272 22.312 227.343 22.3007 227.413 22.3119C227.483 22.3231 227.548 22.3561 227.598 22.4063L228.19 22.9972C228.221 23.0285 228.258 23.0533 228.299 23.0702C228.34 23.0871 228.384 23.0959 228.428 23.0959C228.472 23.0959 228.516 23.0871 228.556 23.0702C228.597 23.0533 228.634 23.0285 228.665 22.9972L230.013 21.6443C230.074 21.5806 230.109 21.4956 230.109 21.4072C230.109 21.3188 230.074 21.2338 230.013 21.1701V21.1701L229.413 20.5714C229.365 20.5203 229.333 20.4559 229.322 20.3866C229.311 20.3173 229.321 20.2462 229.351 20.1826C229.445 19.995 229.523 19.8 229.585 19.5995C229.607 19.5324 229.65 19.474 229.707 19.4322C229.764 19.3905 229.833 19.3674 229.904 19.3663H230.761C230.85 19.3663 230.936 19.3313 231.001 19.2688C231.065 19.2063 231.102 19.1213 231.104 19.0319V19.0319V17.1271C231.102 17.0377 231.065 16.9526 231.001 16.8902C230.936 16.8277 230.85 16.7927 230.761 16.7927V16.8083ZM225.09 20.9135C224.53 20.9196 223.981 20.7598 223.512 20.4541C223.043 20.1484 222.676 19.7107 222.457 19.1965C222.237 18.6823 222.176 18.1146 222.28 17.5656C222.385 17.0165 222.65 16.5107 223.042 16.1122C223.435 15.7138 223.937 15.4407 224.486 15.3275C225.034 15.2143 225.604 15.2661 226.123 15.4764C226.641 15.6867 227.086 16.046 227.4 16.5087C227.714 16.9714 227.883 17.5168 227.886 18.0756V18.0756C227.886 18.8228 227.589 19.5395 227.061 20.0686C226.532 20.5976 225.815 20.8959 225.066 20.8979L225.09 20.9135Z" fill="#1075F1" fill-opacity="0.5"/>
<path d="M295.169 75.0093H229.059C228.436 75.0108 227.82 74.8894 227.244 74.6521C226.668 74.4148 226.145 74.0662 225.704 73.6264C225.263 73.1866 224.914 72.6642 224.675 72.0891C224.436 71.5139 224.313 70.8974 224.313 70.2747V22.1628C224.313 21.5401 224.436 20.9235 224.675 20.3484C224.914 19.7732 225.263 19.2508 225.704 18.811C226.145 18.3712 226.668 18.0227 227.244 17.7854C227.82 17.5481 228.436 17.4267 229.059 17.4281H295.169C296.425 17.4281 297.629 17.9269 298.517 18.8149C299.405 19.7028 299.904 20.9071 299.904 22.1628V70.2747C299.904 71.5304 299.405 72.7347 298.517 73.6226C297.629 74.5105 296.425 75.0093 295.169 75.0093Z" fill="white"/>
<path d="M224.117 70.3075V22.1956C224.117 20.8848 224.637 19.6277 225.564 18.7008C226.491 17.7739 227.748 17.2532 229.059 17.2532H295.169C295.818 17.2532 296.46 17.3811 297.059 17.6296C297.658 17.8781 298.202 18.2423 298.66 18.7014C299.118 19.1605 299.481 19.7055 299.728 20.305C299.976 20.9046 300.102 21.5471 300.101 22.1956V22.1956V70.3075C300.101 71.6164 299.582 72.8719 298.657 73.7984C297.732 74.725 296.478 75.247 295.169 75.2499H229.059C227.748 75.2499 226.491 74.7292 225.564 73.8023C224.637 72.8754 224.117 71.6183 224.117 70.3075V70.3075ZM229.059 17.6468C227.856 17.6468 226.701 18.1249 225.85 18.9759C224.999 19.8269 224.521 20.9811 224.521 22.1846V70.2966C224.521 70.8925 224.639 71.4826 224.867 72.0331C225.095 72.5837 225.429 73.0839 225.85 73.5053C226.272 73.9267 226.772 74.2609 227.323 74.489C227.873 74.717 228.463 74.8344 229.059 74.8344H295.169C295.765 74.8344 296.355 74.717 296.906 74.489C297.456 74.2609 297.957 73.9267 298.378 73.5053C298.799 73.0839 299.134 72.5837 299.362 72.0331C299.59 71.4826 299.707 70.8925 299.707 70.2966V22.1846C299.707 20.9811 299.229 19.8269 298.378 18.9759C297.527 18.1249 296.373 17.6468 295.169 17.6468H229.059V17.6468Z" fill="#292A2E"/>
<path d="M224.313 22.1846V26.1866H299.904V22.1846C299.904 21.5628 299.781 20.9472 299.543 20.3727C299.306 19.7983 298.957 19.2764 298.517 18.8367C298.077 18.3971 297.555 18.0483 296.981 17.8104C296.407 17.5724 295.791 17.45 295.169 17.45H229.059C228.436 17.4485 227.82 17.5699 227.244 17.8072C226.668 18.0445 226.145 18.393 225.704 18.8328C225.263 19.2726 224.914 19.7951 224.675 20.3702C224.436 20.9454 224.313 21.5619 224.313 22.1846V22.1846Z" fill="#292A2E"/>
<path d="M250.097 32.6709H246.532C246.492 32.6709 246.453 32.6547 246.424 32.626C246.396 32.5973 246.379 32.5584 246.379 32.5178C246.379 32.4761 246.395 32.436 246.423 32.4055C246.452 32.375 246.491 32.3565 246.532 32.3538H250.097C250.141 32.3538 250.182 32.371 250.213 32.4018C250.244 32.4326 250.261 32.4743 250.261 32.5178C250.258 32.5594 250.24 32.5983 250.209 32.6267C250.179 32.6552 250.139 32.671 250.097 32.6709V32.6709Z" fill="#FFA233"/>
<path d="M243.995 32.6709H242.639C242.599 32.6709 242.56 32.6547 242.531 32.626C242.502 32.5973 242.486 32.5584 242.486 32.5178C242.486 32.4761 242.502 32.436 242.53 32.4055C242.559 32.375 242.598 32.3565 242.639 32.3538H243.995C244.037 32.3565 244.076 32.375 244.104 32.4055C244.133 32.436 244.148 32.4761 244.148 32.5178C244.148 32.5584 244.132 32.5973 244.104 32.626C244.075 32.6547 244.036 32.6709 243.995 32.6709Z" fill="#32BEEF"/>
<path d="M243.995 35.5247H242.639C242.599 35.5247 242.56 35.5086 242.531 35.4799C242.502 35.4512 242.486 35.4123 242.486 35.3717C242.486 35.33 242.502 35.2898 242.53 35.2594C242.559 35.2289 242.598 35.2104 242.639 35.2076H243.995C244.037 35.2104 244.076 35.2289 244.104 35.2594C244.133 35.2898 244.148 35.33 244.148 35.3717C244.148 35.4123 244.132 35.4512 244.104 35.4799C244.075 35.5086 244.036 35.5247 243.995 35.5247Z" fill="#32BEEF"/>
<path d="M243.995 38.3896H242.639C242.598 38.3868 242.559 38.3683 242.53 38.3379C242.502 38.3074 242.486 38.2673 242.486 38.2256C242.486 38.185 242.502 38.1461 242.531 38.1173C242.56 38.0886 242.599 38.0725 242.639 38.0725H243.995C244.036 38.0725 244.075 38.0886 244.104 38.1173C244.132 38.1461 244.148 38.185 244.148 38.2256C244.148 38.2673 244.133 38.3074 244.104 38.3379C244.076 38.3683 244.037 38.3868 243.995 38.3896V38.3896Z" fill="#32BEEF"/>
<path d="M243.996 41.2435H242.64C242.618 41.2501 242.595 41.2517 242.573 41.2484C242.55 41.2451 242.529 41.2369 242.51 41.2244C242.491 41.2118 242.476 41.1953 242.464 41.1759C242.452 41.1565 242.445 41.1348 242.443 41.1123C242.443 41.0706 242.459 41.0304 242.487 41C242.515 40.9695 242.554 40.951 242.596 40.9482H243.952C243.993 40.951 244.032 40.9695 244.061 41C244.089 41.0304 244.105 41.0706 244.105 41.1123C244.102 41.1425 244.09 41.1712 244.07 41.1945C244.051 41.2179 244.025 41.2349 243.996 41.2435Z" fill="#32BEEF"/>
<path d="M243.995 44.0974H242.639C242.619 44.0974 242.599 44.0934 242.581 44.0857C242.562 44.078 242.545 44.0668 242.531 44.0525C242.517 44.0383 242.506 44.0215 242.498 44.0029C242.49 43.9843 242.486 43.9644 242.486 43.9443C242.486 43.9026 242.502 43.8625 242.53 43.832C242.559 43.8016 242.598 43.7831 242.639 43.7803H243.995C244.037 43.7831 244.076 43.8016 244.104 43.832C244.133 43.8625 244.148 43.9026 244.148 43.9443C244.148 43.9644 244.144 43.9843 244.137 44.0029C244.129 44.0215 244.118 44.0383 244.104 44.0525C244.089 44.0668 244.072 44.078 244.054 44.0857C244.035 44.0934 244.015 44.0974 243.995 44.0974V44.0974Z" fill="#32BEEF"/>
<path d="M243.995 46.9622H242.639C242.598 46.9595 242.559 46.941 242.53 46.9105C242.502 46.88 242.486 46.8399 242.486 46.7982C242.486 46.7576 242.502 46.7187 242.531 46.69C242.56 46.6613 242.599 46.6451 242.639 46.6451H243.995C244.036 46.6451 244.075 46.6613 244.104 46.69C244.132 46.7187 244.148 46.7576 244.148 46.7982C244.148 46.8399 244.133 46.88 244.104 46.9105C244.076 46.941 244.037 46.9595 243.995 46.9622V46.9622Z" fill="#32BEEF"/>
<path d="M243.995 49.8598H242.639C242.598 49.857 242.559 49.8386 242.53 49.8081C242.502 49.7776 242.486 49.7375 242.486 49.6958C242.486 49.6552 242.502 49.6163 242.531 49.5876C242.56 49.5589 242.599 49.5427 242.639 49.5427H243.995C244.036 49.5427 244.075 49.5589 244.104 49.5876C244.132 49.6163 244.148 49.6552 244.148 49.6958C244.148 49.7375 244.133 49.7776 244.104 49.8081C244.076 49.8386 244.037 49.857 243.995 49.8598V49.8598Z" fill="#32BEEF"/>
<path d="M243.995 52.6701H242.639C242.599 52.6701 242.56 52.654 242.531 52.6253C242.502 52.5966 242.486 52.5576 242.486 52.517C242.486 52.4754 242.502 52.4352 242.53 52.4048C242.559 52.3743 242.598 52.3558 242.639 52.353H243.995C244.037 52.3558 244.076 52.3743 244.104 52.4048C244.133 52.4352 244.148 52.4754 244.148 52.517C244.148 52.5576 244.132 52.5966 244.104 52.6253C244.075 52.654 244.036 52.6701 243.995 52.6701Z" fill="#32BEEF"/>
<path d="M243.995 55.5239H242.64C242.612 55.5341 242.582 55.5362 242.554 55.53C242.525 55.5237 242.499 55.5094 242.478 55.4887C242.457 55.4679 242.443 55.4417 242.437 55.4131C242.43 55.3844 242.432 55.3546 242.443 55.3271C242.443 55.2854 242.458 55.2453 242.487 55.2148C242.515 55.1844 242.554 55.1659 242.596 55.1631H243.952C243.993 55.1659 244.032 55.1844 244.061 55.2148C244.089 55.2453 244.105 55.2854 244.105 55.3271C244.111 55.3472 244.114 55.3684 244.112 55.3895C244.11 55.4106 244.103 55.431 244.093 55.4495C244.083 55.468 244.069 55.4841 244.052 55.497C244.035 55.5098 244.016 55.519 243.995 55.5239V55.5239Z" fill="#32BEEF"/>
<path d="M243.995 58.3889H242.639C242.598 58.3861 242.559 58.3676 242.53 58.3371C242.502 58.3067 242.486 58.2665 242.486 58.2249C242.486 58.1843 242.502 58.1453 242.531 58.1166C242.56 58.0879 242.599 58.0718 242.639 58.0718H243.995C244.036 58.0718 244.075 58.0879 244.104 58.1166C244.132 58.1453 244.148 58.1843 244.148 58.2249C244.148 58.2665 244.133 58.3067 244.104 58.3371C244.076 58.3676 244.037 58.3861 243.995 58.3889V58.3889Z" fill="#32BEEF"/>
<path d="M243.995 61.2426H242.639C242.598 61.2399 242.559 61.2214 242.53 61.1909C242.502 61.1604 242.486 61.1203 242.486 61.0786C242.486 61.038 242.502 60.9991 242.531 60.9704C242.56 60.9417 242.599 60.9255 242.639 60.9255H243.995C244.036 60.9255 244.075 60.9417 244.104 60.9704C244.132 60.9991 244.148 61.038 244.148 61.0786C244.148 61.1203 244.133 61.1604 244.104 61.1909C244.076 61.2214 244.037 61.2399 243.995 61.2426V61.2426Z" fill="#32BEEF"/>
<path d="M243.995 64.0748H242.639C242.599 64.0748 242.56 64.0587 242.531 64.03C242.502 64.0012 242.486 63.9623 242.486 63.9217C242.486 63.88 242.502 63.8399 242.53 63.8094C242.559 63.779 242.598 63.7605 242.639 63.7577H243.995C244.037 63.7605 244.076 63.779 244.104 63.8094C244.133 63.8399 244.148 63.88 244.148 63.9217C244.148 63.9623 244.132 64.0012 244.104 64.03C244.075 64.0587 244.036 64.0748 243.995 64.0748V64.0748Z" fill="#32BEEF"/>
<path d="M243.995 66.9505H242.639C242.599 66.9505 242.56 66.9344 242.531 66.9057C242.502 66.877 242.486 66.838 242.486 66.7974C242.486 66.7558 242.502 66.7156 242.53 66.6852C242.559 66.6547 242.598 66.6362 242.639 66.6334H243.995C244.037 66.6362 244.076 66.6547 244.104 66.6852C244.133 66.7156 244.148 66.7558 244.148 66.7974C244.148 66.838 244.132 66.877 244.104 66.9057C244.075 66.9344 244.036 66.9505 243.995 66.9505Z" fill="#32BEEF"/>
<path d="M243.995 69.8154H242.639C242.598 69.8126 242.559 69.7941 242.53 69.7637C242.502 69.7332 242.486 69.693 242.486 69.6514C242.486 69.6108 242.502 69.5718 242.531 69.5431C242.56 69.5144 242.599 69.4983 242.639 69.4983H243.995C244.036 69.4983 244.075 69.5144 244.104 69.5431C244.132 69.5718 244.148 69.6108 244.148 69.6514C244.148 69.693 244.133 69.7332 244.104 69.7637C244.076 69.7941 244.037 69.8126 243.995 69.8154V69.8154Z" fill="#32BEEF"/>
<path d="M252.984 35.5247H249.704C249.662 35.5248 249.622 35.5091 249.591 35.4806C249.561 35.4522 249.542 35.4132 249.54 35.3717C249.54 35.3282 249.557 35.2864 249.588 35.2557C249.618 35.2249 249.66 35.2076 249.704 35.2076H252.984C253.025 35.2104 253.064 35.2289 253.093 35.2594C253.121 35.2898 253.137 35.33 253.137 35.3717C253.137 35.4123 253.121 35.4512 253.092 35.4799C253.063 35.5086 253.025 35.5247 252.984 35.5247Z" fill="#FFA233"/>
<path d="M250.097 52.67H246.532C246.492 52.67 246.453 52.6539 246.424 52.6252C246.396 52.5965 246.379 52.5575 246.379 52.5169C246.379 52.4753 246.395 52.4351 246.423 52.4046C246.452 52.3742 246.491 52.3557 246.532 52.3529H250.097C250.141 52.3529 250.182 52.3702 250.213 52.4009C250.244 52.4317 250.261 52.4734 250.261 52.5169C250.258 52.5585 250.24 52.5975 250.209 52.6259C250.179 52.6543 250.139 52.6701 250.097 52.67V52.67Z" fill="#FFA233"/>
<path d="M252.984 55.524H249.704C249.662 55.5241 249.622 55.5083 249.591 55.4799C249.561 55.4515 249.542 55.4125 249.54 55.3709C249.54 55.3274 249.557 55.2857 249.588 55.2549C249.618 55.2242 249.66 55.2069 249.704 55.2069H252.984C253.025 55.2097 253.064 55.2282 253.093 55.2586C253.121 55.2891 253.137 55.3293 253.137 55.3709C253.137 55.4115 253.121 55.4505 253.092 55.4792C253.063 55.5079 253.025 55.524 252.984 55.524Z" fill="#FFA233"/>
<path d="M271.354 38.3896H251.945C251.903 38.3868 251.865 38.3683 251.836 38.3379C251.808 38.3074 251.792 38.2673 251.792 38.2256C251.792 38.185 251.808 38.1461 251.837 38.1173C251.866 38.0886 251.904 38.0725 251.945 38.0725H271.354C271.394 38.0725 271.433 38.0886 271.462 38.1173C271.491 38.1461 271.507 38.185 271.507 38.2256C271.507 38.2673 271.491 38.3074 271.463 38.3379C271.434 38.3683 271.395 38.3868 271.354 38.3896V38.3896Z" fill="#FFA233"/>
<path d="M288.488 38.3896H274.787C274.744 38.3896 274.702 38.3723 274.671 38.3416C274.64 38.3108 274.623 38.2691 274.623 38.2256C274.626 38.184 274.644 38.1451 274.675 38.1166C274.705 38.0882 274.745 38.0724 274.787 38.0725H288.488C288.529 38.0725 288.568 38.0886 288.596 38.1173C288.625 38.1461 288.641 38.185 288.641 38.2256C288.641 38.2673 288.625 38.3074 288.597 38.3379C288.569 38.3683 288.53 38.3868 288.488 38.3896V38.3896Z" fill="#32BEEF"/>
<path d="M295.836 38.3896H291.648C291.607 38.3868 291.568 38.3683 291.539 38.3379C291.511 38.3074 291.495 38.2673 291.495 38.2256C291.495 38.185 291.511 38.1461 291.54 38.1173C291.569 38.0886 291.608 38.0725 291.648 38.0725H295.847C295.889 38.0724 295.929 38.0882 295.959 38.1166C295.99 38.1451 296.008 38.184 296.011 38.2256C296.011 38.2481 296.007 38.2703 295.998 38.291C295.989 38.3116 295.976 38.3302 295.959 38.3456C295.943 38.361 295.923 38.3728 295.902 38.3804C295.881 38.388 295.859 38.3911 295.836 38.3896V38.3896Z" fill="#FFA233"/>
<path d="M280.856 44.0974H251.945C251.925 44.0974 251.905 44.0934 251.886 44.0857C251.868 44.078 251.851 44.0668 251.837 44.0525C251.823 44.0383 251.811 44.0215 251.804 44.0029C251.796 43.9843 251.792 43.9644 251.792 43.9443C251.792 43.9026 251.808 43.8625 251.836 43.832C251.865 43.8016 251.903 43.7831 251.945 43.7803H280.856C280.898 43.7831 280.936 43.8016 280.965 43.832C280.993 43.8625 281.009 43.9026 281.009 43.9443C281.009 43.9644 281.005 43.9843 280.997 44.0029C280.99 44.0215 280.978 44.0383 280.964 44.0525C280.95 44.0668 280.933 44.078 280.915 44.0857C280.896 44.0934 280.876 44.0974 280.856 44.0974V44.0974Z" fill="#FFA233"/>
<path d="M288.488 44.0974H284.289C284.247 44.0975 284.207 44.0817 284.177 44.0533C284.146 44.0248 284.128 43.9859 284.125 43.9443C284.125 43.9008 284.142 43.8591 284.173 43.8283C284.204 43.7976 284.246 43.7803 284.289 43.7803H288.488C288.529 43.7831 288.568 43.8016 288.597 43.832C288.625 43.8625 288.641 43.9026 288.641 43.9443C288.641 43.9644 288.637 43.9843 288.629 44.0029C288.622 44.0215 288.61 44.0383 288.596 44.0525C288.582 44.0668 288.565 44.078 288.546 44.0857C288.528 44.0934 288.508 44.0974 288.488 44.0974V44.0974Z" fill="#32BEEF"/>
<path d="M255.564 41.2435H251.989C251.948 41.2435 251.909 41.2274 251.88 41.1987C251.852 41.1699 251.835 41.131 251.835 41.0904C251.835 41.0487 251.851 41.0086 251.88 40.9781C251.908 40.9477 251.947 40.9292 251.989 40.9264H255.564C255.606 40.9292 255.645 40.9477 255.673 40.9781C255.702 41.0086 255.717 41.0487 255.717 41.0904C255.717 41.131 255.701 41.1699 255.672 41.1987C255.644 41.2274 255.605 41.2435 255.564 41.2435Z" fill="#32BEEF"/>
<path d="M278.986 41.2435H258.943C258.916 41.2332 258.892 41.2154 258.875 41.1922C258.857 41.1689 258.847 41.1412 258.845 41.1123C258.845 41.0706 258.86 41.0304 258.889 41C258.917 40.9695 258.956 40.951 258.998 40.9482H279.041C279.082 40.951 279.121 40.9695 279.15 41C279.178 41.0304 279.194 41.0706 279.194 41.1123C279.192 41.1361 279.185 41.1591 279.172 41.1796C279.16 41.2 279.143 41.2173 279.123 41.2301C279.103 41.2428 279.08 41.2507 279.056 41.253C279.032 41.2553 279.008 41.2521 278.986 41.2435Z" fill="#32BEEF"/>
<path d="M295.869 41.2435H282.748C282.707 41.2435 282.668 41.2274 282.64 41.1987C282.611 41.1699 282.595 41.131 282.595 41.0904C282.595 41.0487 282.61 41.0086 282.639 40.9781C282.667 40.9477 282.706 40.9292 282.748 40.9264H295.869C295.892 40.9277 295.914 40.9336 295.934 40.9439C295.954 40.9541 295.972 40.9684 295.986 40.9859C296.001 41.0033 296.011 41.0236 296.018 41.0453C296.024 41.0671 296.025 41.0899 296.022 41.1123C296.022 41.1529 296.006 41.1918 295.977 41.2205C295.949 41.2492 295.91 41.2654 295.869 41.2654V41.2435Z" fill="#FFA233"/>
<path d="M271.354 46.9622H251.945C251.903 46.9595 251.865 46.941 251.836 46.9105C251.808 46.88 251.792 46.8399 251.792 46.7982C251.792 46.7576 251.808 46.7187 251.837 46.69C251.866 46.6613 251.904 46.6451 251.945 46.6451H271.354C271.394 46.6451 271.433 46.6613 271.462 46.69C271.491 46.7187 271.507 46.7576 271.507 46.7982C271.507 46.8399 271.491 46.88 271.463 46.9105C271.434 46.941 271.395 46.9595 271.354 46.9622V46.9622Z" fill="#FFA233"/>
<path d="M282.146 46.9622H274.787C274.744 46.9622 274.702 46.945 274.671 46.9142C274.64 46.8834 274.623 46.8417 274.623 46.7982C274.626 46.7566 274.644 46.7177 274.675 46.6893C274.705 46.6608 274.745 46.645 274.787 46.6451H282.146C282.188 46.645 282.228 46.6608 282.258 46.6893C282.289 46.7177 282.307 46.7566 282.31 46.7982C282.31 46.8417 282.293 46.8834 282.262 46.9142C282.231 46.945 282.19 46.9622 282.146 46.9622V46.9622Z" fill="#32BEEF"/>
<path d="M295.836 46.9622H285.306C285.263 46.9622 285.221 46.945 285.19 46.9142C285.159 46.8834 285.142 46.8417 285.142 46.7982C285.145 46.7566 285.163 46.7177 285.194 46.6893C285.224 46.6608 285.264 46.645 285.306 46.6451H295.836C295.878 46.645 295.918 46.6608 295.948 46.6893C295.979 46.7177 295.997 46.7566 296 46.7982C296 46.8417 295.983 46.8834 295.952 46.9142C295.921 46.945 295.88 46.9622 295.836 46.9622V46.9622Z" fill="#FFA233"/>
<path d="M255.564 49.8598H251.989C251.947 49.857 251.908 49.8386 251.88 49.8081C251.851 49.7776 251.835 49.7375 251.835 49.6958C251.835 49.6552 251.852 49.6163 251.88 49.5876C251.909 49.5589 251.948 49.5427 251.989 49.5427H255.564C255.605 49.5427 255.644 49.5589 255.672 49.5876C255.701 49.6163 255.717 49.6552 255.717 49.6958C255.717 49.7375 255.702 49.7776 255.673 49.8081C255.645 49.8386 255.606 49.857 255.564 49.8598V49.8598Z" fill="#32BEEF"/>
<path d="M278.986 49.8598H258.943C258.902 49.857 258.863 49.8386 258.834 49.8081C258.806 49.7776 258.79 49.7375 258.79 49.6958C258.79 49.6552 258.806 49.6163 258.835 49.5876C258.864 49.5589 258.903 49.5427 258.943 49.5427H278.986C279.027 49.5427 279.066 49.5589 279.094 49.5876C279.123 49.6163 279.139 49.6552 279.139 49.6958C279.139 49.7375 279.123 49.7776 279.095 49.8081C279.067 49.8386 279.028 49.857 278.986 49.8598Z" fill="#32BEEF"/>
<path d="M270.72 61.2428H251.322C251.278 61.2428 251.237 61.2255 251.206 61.1947C251.175 61.164 251.158 61.1222 251.158 61.0787C251.16 61.0372 251.179 60.9982 251.209 60.9698C251.24 60.9413 251.28 60.9256 251.322 60.9257H270.72C270.76 60.9257 270.799 60.9418 270.828 60.9705C270.857 60.9992 270.873 61.0381 270.873 61.0787C270.873 61.1204 270.857 61.1606 270.829 61.191C270.8 61.2215 270.761 61.24 270.72 61.2428V61.2428Z" fill="#FFA233"/>
<path d="M287.854 61.2428H274.153C274.109 61.2428 274.068 61.2255 274.037 61.1947C274.006 61.164 273.989 61.1222 273.989 61.0787C273.992 61.0372 274.01 60.9982 274.04 60.9698C274.071 60.9413 274.111 60.9256 274.153 60.9257H287.854C287.894 60.9257 287.933 60.9418 287.962 60.9705C287.991 60.9992 288.007 61.0381 288.007 61.0787C288.007 61.1204 287.991 61.1606 287.963 61.191C287.934 61.2215 287.895 61.24 287.854 61.2428V61.2428Z" fill="#32BEEF"/>
<path d="M261.217 58.3888H251.322C251.278 58.3888 251.237 58.3715 251.206 58.3407C251.175 58.31 251.158 58.2682 251.158 58.2247C251.16 58.1832 251.179 58.1442 251.209 58.1158C251.24 58.0873 251.28 58.0716 251.322 58.0717H261.217C261.259 58.0716 261.299 58.0873 261.33 58.1158C261.36 58.1442 261.379 58.1832 261.382 58.2247C261.382 58.2682 261.364 58.31 261.333 58.3407C261.303 58.3715 261.261 58.3888 261.217 58.3888V58.3888Z" fill="#32BEEF"/>
<path d="M278.352 58.3888H264.651C264.607 58.3888 264.566 58.3715 264.535 58.3407C264.504 58.31 264.487 58.2682 264.487 58.2247C264.49 58.1832 264.508 58.1442 264.539 58.1158C264.569 58.0873 264.609 58.0716 264.651 58.0717H278.352C278.392 58.0717 278.431 58.0878 278.46 58.1165C278.489 58.1452 278.505 58.1841 278.505 58.2247C278.505 58.2664 278.489 58.3066 278.461 58.337C278.432 58.3675 278.393 58.386 278.352 58.3888V58.3888Z" fill="#32BEEF"/>
<path d="M295.234 58.3888H282.113C282.071 58.386 282.032 58.3675 282.004 58.337C281.976 58.3066 281.96 58.2664 281.96 58.2247C281.96 58.1841 281.976 58.1452 282.005 58.1165C282.033 58.0878 282.072 58.0717 282.113 58.0717H295.234C295.275 58.0717 295.314 58.0878 295.343 58.1165C295.371 58.1452 295.388 58.1841 295.388 58.2247C295.388 58.2664 295.372 58.3066 295.343 58.337C295.315 58.3675 295.276 58.386 295.234 58.3888V58.3888Z" fill="#FFA233"/>
<path d="M280.221 66.9506H251.322C251.281 66.9506 251.242 66.9344 251.213 66.9057C251.185 66.877 251.168 66.8381 251.168 66.7975C251.168 66.7569 251.185 66.718 251.213 66.6892C251.242 66.6605 251.281 66.6444 251.322 66.6444H280.221C280.262 66.6444 280.301 66.6605 280.33 66.6892C280.358 66.718 280.375 66.7569 280.375 66.7975C280.375 66.8381 280.358 66.877 280.33 66.9057C280.301 66.9344 280.262 66.9506 280.221 66.9506Z" fill="#32BEEF"/>
<path d="M287.854 66.9506H283.655C283.614 66.9506 283.576 66.9344 283.547 66.9057C283.518 66.877 283.502 66.8381 283.502 66.7975C283.502 66.7569 283.518 66.718 283.547 66.6892C283.576 66.6605 283.614 66.6444 283.655 66.6444H287.854C287.895 66.6444 287.933 66.6605 287.962 66.6892C287.991 66.718 288.007 66.7569 288.007 66.7975C288.007 66.8381 287.991 66.877 287.962 66.9057C287.933 66.9344 287.895 66.9506 287.854 66.9506Z" fill="#FFA233"/>
<path d="M254.886 64.0748H251.322C251.28 64.0749 251.24 64.0591 251.209 64.0307C251.179 64.0022 251.16 63.9633 251.158 63.9217C251.158 63.8782 251.175 63.8365 251.206 63.8057C251.237 63.775 251.278 63.7577 251.322 63.7577H254.886C254.928 63.7605 254.967 63.779 254.995 63.8094C255.024 63.8399 255.04 63.88 255.039 63.9217C255.039 63.9623 255.023 64.0012 254.995 64.03C254.966 64.0587 254.927 64.0748 254.886 64.0748V64.0748Z" fill="#32BEEF"/>
<path d="M278.352 64.0748H258.309C258.268 64.0748 258.229 64.0587 258.201 64.03C258.172 64.0012 258.156 63.9623 258.156 63.9217C258.156 63.88 258.171 63.8399 258.2 63.8094C258.228 63.779 258.267 63.7605 258.309 63.7577H278.352C278.393 63.7605 278.432 63.779 278.461 63.8094C278.489 63.8399 278.505 63.88 278.505 63.9217C278.505 63.9623 278.489 64.0012 278.46 64.03C278.431 64.0587 278.392 64.0748 278.352 64.0748V64.0748Z" fill="#FFA233"/>
<path d="M295.234 64.0748H282.113C282.072 64.0748 282.033 64.0587 282.005 64.03C281.976 64.0012 281.96 63.9623 281.96 63.9217C281.96 63.88 281.976 63.8399 282.004 63.8094C282.032 63.779 282.071 63.7605 282.113 63.7577H295.234C295.276 63.7605 295.315 63.779 295.343 63.8094C295.372 63.8399 295.388 63.88 295.388 63.9217C295.388 63.9623 295.371 64.0012 295.343 64.03C295.314 64.0587 295.275 64.0748 295.234 64.0748V64.0748Z" fill="#32BEEF"/>
<path d="M270.72 69.8154H251.322C251.278 69.8154 251.237 69.7981 251.206 69.7673C251.175 69.7366 251.158 69.6949 251.158 69.6514C251.16 69.6098 251.179 69.5708 251.209 69.5424C251.24 69.514 251.28 69.4982 251.322 69.4983H270.72C270.76 69.4983 270.799 69.5144 270.828 69.5431C270.857 69.5718 270.873 69.6108 270.873 69.6514C270.873 69.693 270.857 69.7332 270.829 69.7637C270.8 69.7941 270.761 69.8126 270.72 69.8154V69.8154Z" fill="#32BEEF"/>
<path d="M281.512 69.8154H274.153C274.109 69.8154 274.068 69.7981 274.037 69.7673C274.006 69.7366 273.989 69.6949 273.989 69.6514C274.001 69.6178 274.023 69.589 274.053 69.5693C274.082 69.5496 274.117 69.54 274.153 69.542H281.512C281.553 69.5419 281.594 69.5577 281.624 69.5861C281.654 69.6146 281.673 69.6535 281.676 69.6951C281.666 69.7307 281.644 69.7619 281.615 69.7837C281.585 69.8056 281.549 69.8167 281.512 69.8154V69.8154Z" fill="#FFA233"/>
<path d="M295.202 69.8154H284.672C284.629 69.8154 284.587 69.7981 284.556 69.7673C284.526 69.7366 284.508 69.6949 284.508 69.6514C284.511 69.6098 284.53 69.5708 284.56 69.5424C284.59 69.514 284.631 69.4982 284.672 69.4983H295.202C295.244 69.4982 295.284 69.514 295.315 69.5424C295.345 69.5708 295.363 69.6098 295.366 69.6514C295.366 69.6949 295.349 69.7366 295.318 69.7673C295.287 69.7981 295.246 69.8154 295.202 69.8154V69.8154Z" fill="#32BEEF"/>
<path d="M241.142 72.8224C241.1 72.8225 241.06 72.8067 241.029 72.7783C240.999 72.7499 240.98 72.7109 240.978 72.6693V27.6847C240.98 27.6431 240.999 27.6042 241.029 27.5757C241.06 27.5473 241.1 27.5315 241.142 27.5316C241.182 27.5316 241.221 27.5477 241.25 27.5765C241.279 27.6052 241.295 27.6441 241.295 27.6847V72.7131C241.285 72.7457 241.265 72.7742 241.237 72.794C241.209 72.8138 241.176 72.8238 241.142 72.8224Z" fill="#FFA233"/>
<path d="M294.185 24.6777C295.586 24.6777 296.722 23.542 296.722 22.1409C296.722 20.7399 295.586 19.6041 294.185 19.6041C292.784 19.6041 291.648 20.7399 291.648 22.1409C291.648 23.542 292.784 24.6777 294.185 24.6777Z" fill="white"/>
<path d="M233.892 29.6638H227.036C226.995 29.6638 226.956 29.6477 226.928 29.6189C226.899 29.5902 226.883 29.5513 226.883 29.5107C226.883 29.469 226.898 29.4289 226.927 29.3984C226.955 29.368 226.994 29.3495 227.036 29.3467H233.892C233.935 29.3467 233.977 29.364 234.008 29.3947C234.039 29.4255 234.056 29.4672 234.056 29.5107C234.053 29.5523 234.035 29.5912 234.004 29.6197C233.974 29.6481 233.934 29.6639 233.892 29.6638Z" fill="#FFA233"/>
<path d="M231.825 32.7911H227.036C226.994 32.7883 226.955 32.7698 226.927 32.7394C226.898 32.7089 226.883 32.6688 226.883 32.6271C226.883 32.5865 226.899 32.5475 226.928 32.5188C226.956 32.4901 226.995 32.474 227.036 32.474H231.825C231.867 32.4739 231.907 32.4897 231.937 32.5181C231.968 32.5465 231.986 32.5855 231.989 32.6271C231.989 32.6706 231.972 32.7123 231.941 32.7431C231.91 32.7738 231.869 32.7911 231.825 32.7911V32.7911Z" fill="#FFA233"/>
<path d="M236.046 35.9074H227.036C226.995 35.9074 226.956 35.8913 226.928 35.8626C226.899 35.8339 226.883 35.7949 226.883 35.7543C226.883 35.7127 226.898 35.6725 226.927 35.6421C226.955 35.6116 226.994 35.5931 227.036 35.5903H236.046C236.088 35.5931 236.126 35.6116 236.155 35.6421C236.183 35.6725 236.199 35.7127 236.199 35.7543C236.199 35.7949 236.183 35.8339 236.154 35.8626C236.125 35.8913 236.087 35.9074 236.046 35.9074Z" fill="#FFA233"/>
<path d="M237.73 39.0346H230.207C230.165 39.0347 230.125 39.0189 230.095 38.9905C230.064 38.9621 230.046 38.9231 230.043 38.8815C230.043 38.86 230.047 38.8387 230.055 38.8188C230.064 38.7989 230.076 38.7808 230.091 38.7656C230.106 38.7503 230.124 38.7383 230.144 38.73C230.164 38.7218 230.185 38.7175 230.207 38.7175H237.73C237.772 38.7203 237.81 38.7388 237.839 38.7693C237.867 38.7997 237.883 38.8399 237.883 38.8815C237.883 38.9221 237.867 38.9611 237.838 38.9898C237.809 39.0185 237.771 39.0346 237.73 39.0346Z" fill="#FFA233"/>
<path d="M234.089 42.2058H230.207C230.185 42.2058 230.164 42.2015 230.144 42.1933C230.124 42.185 230.106 42.173 230.091 42.1577C230.076 42.1425 230.064 42.1244 230.055 42.1045C230.047 42.0846 230.043 42.0633 230.043 42.0418C230.046 42.0002 230.064 41.9612 230.095 41.9328C230.125 41.9044 230.165 41.8886 230.207 41.8887H234.089C234.129 41.8887 234.168 41.9048 234.197 41.9335C234.226 41.9622 234.242 42.0012 234.242 42.0418C234.242 42.0834 234.226 42.1236 234.198 42.154C234.169 42.1845 234.13 42.203 234.089 42.2058V42.2058Z" fill="#FFA233"/>
<path d="M237.063 45.2783H230.207C230.165 45.2784 230.125 45.2626 230.095 45.2342C230.064 45.2057 230.046 45.1668 230.043 45.1252C230.043 45.1037 230.047 45.0823 230.055 45.0624C230.064 45.0425 230.076 45.0245 230.091 45.0092C230.106 44.994 230.124 44.9819 230.144 44.9737C230.164 44.9654 230.185 44.9612 230.207 44.9612H237.063C237.106 44.9612 237.148 44.9785 237.179 45.0092C237.21 45.04 237.227 45.0817 237.227 45.1252C237.224 45.1668 237.206 45.2057 237.175 45.2342C237.145 45.2626 237.105 45.2784 237.063 45.2783V45.2783Z" fill="#FFA233"/>
<path d="M232.328 48.4056H227.036C226.995 48.4056 226.956 48.3895 226.928 48.3608C226.899 48.3321 226.883 48.2931 226.883 48.2525C226.883 48.2108 226.898 48.1707 226.927 48.1402C226.955 48.1098 226.994 48.0913 227.036 48.0885H232.328C232.37 48.0913 232.409 48.1098 232.437 48.1402C232.466 48.1707 232.481 48.2108 232.481 48.2525C232.481 48.2931 232.465 48.3321 232.436 48.3608C232.408 48.3895 232.369 48.4056 232.328 48.4056V48.4056Z" fill="#FFA233"/>
<path d="M230.513 51.5329H227.036C226.994 51.5301 226.955 51.5116 226.927 51.4812C226.898 51.4507 226.883 51.4106 226.883 51.3689C226.883 51.3283 226.899 51.2894 226.928 51.2607C226.956 51.2319 226.995 51.2158 227.036 51.2158H230.513C230.554 51.2158 230.593 51.2319 230.621 51.2607C230.65 51.2894 230.666 51.3283 230.666 51.3689C230.666 51.4106 230.65 51.4507 230.622 51.4812C230.594 51.5116 230.555 51.5301 230.513 51.5329V51.5329Z" fill="#FFA233"/>
<path d="M243.777 28.9968L245.756 29.7294C245.785 29.7404 245.81 29.7599 245.827 29.7853C245.845 29.8106 245.854 29.8407 245.854 29.8716V29.9262C245.857 29.9506 245.852 29.9751 245.84 29.9966C245.829 30.0181 245.811 30.0355 245.789 30.0465C245.767 30.0572 245.742 30.0627 245.718 30.0627C245.693 30.0627 245.669 30.0572 245.647 30.0465L243.46 29.1718C243.432 29.1596 243.408 29.1398 243.39 29.1147C243.373 29.0896 243.363 29.0601 243.361 29.0296V28.8656C243.361 28.8347 243.371 28.8047 243.389 28.7793C243.406 28.7539 243.431 28.7345 243.46 28.7234L245.647 27.8487C245.675 27.8377 245.706 27.8377 245.734 27.8487C245.756 27.8597 245.774 27.8771 245.786 27.8986C245.797 27.9201 245.802 27.9446 245.8 27.969V28.0236C245.798 28.0541 245.788 28.0836 245.771 28.1087C245.753 28.1338 245.729 28.1536 245.701 28.1658L243.777 28.9968Z" fill="#32BEEF"/>
<path d="M247.703 27.2801L246.522 30.9103C246.511 30.9391 246.491 30.9639 246.466 30.9815C246.44 30.9991 246.41 31.0086 246.379 31.0087C246.357 31.01 246.334 31.0057 246.313 30.9962C246.292 30.9867 246.273 30.9722 246.259 30.9541C246.247 30.9345 246.24 30.9117 246.24 30.8884C246.24 30.8652 246.247 30.8424 246.259 30.8228L247.44 27.1926C247.451 27.1667 247.469 27.1445 247.493 27.129C247.516 27.1134 247.543 27.1051 247.571 27.1051C247.599 27.1051 247.627 27.1134 247.65 27.129C247.674 27.1445 247.692 27.1667 247.703 27.1926C247.712 27.221 247.712 27.2516 247.703 27.2801V27.2801Z" fill="#32BEEF"/>
<path d="M250.611 28.9421V29.0843C250.609 29.1134 250.601 29.1416 250.585 29.1665C250.57 29.1913 250.549 29.2119 250.524 29.2264L248.337 30.1012C248.314 30.1119 248.29 30.1174 248.266 30.1174C248.241 30.1174 248.217 30.1119 248.195 30.1012C248.175 30.0876 248.159 30.0697 248.148 30.0488C248.136 30.0279 248.13 30.0047 248.129 29.9809V29.9262C248.129 29.8954 248.139 29.8653 248.156 29.8399C248.174 29.8146 248.198 29.7951 248.227 29.7841L250.206 29.0515L248.227 28.3189C248.198 28.3079 248.174 28.2884 248.156 28.263C248.139 28.2377 248.129 28.2076 248.129 28.1767V28.122C248.13 28.0983 248.136 28.075 248.148 28.0542C248.159 28.0333 248.175 28.0153 248.195 28.0018C248.223 27.9926 248.254 27.9926 248.282 28.0018H248.337L250.524 28.8765C250.542 28.8812 250.559 28.8893 250.574 28.9006C250.589 28.9118 250.602 28.926 250.611 28.9421V28.9421Z" fill="#32BEEF"/>
<path d="M84.2448 254.628L83.6216 254.508L93.3424 157.891L93.9656 158.011L84.2448 254.628Z" fill="#494949"/>
<path d="M120.438 254.628L119.814 254.508L129.546 157.891L130.159 158.011L120.438 254.628Z" fill="#494949"/>
<path d="M200.468 254.628L201.08 254.508L191.36 157.891L190.736 158.011L200.468 254.628Z" fill="#494949"/>
<path d="M164.264 254.628L164.887 254.508L155.166 157.891L154.543 158.011L164.264 254.628Z" fill="#494949"/>
<path d="M151.352 115.389L150.724 115.473L156.4 158.014L157.028 157.93L151.352 115.389Z" fill="#494949"/>
<path d="M86.1643 115.384L85.5356 115.468L91.2118 158.009L91.8405 157.925L86.1643 115.384Z" fill="#494949"/>
<path d="M156.992 154.84H93.233C91.5119 154.84 90.1167 156.235 90.1167 157.956C90.1167 159.677 91.5119 161.072 93.233 161.072H156.992C158.713 161.072 160.109 159.677 160.109 157.956C160.109 156.235 158.713 154.84 156.992 154.84Z" fill="#292A2E"/>
<path opacity="0.8" d="M156.992 154.84H93.233C91.5119 154.84 90.1167 156.235 90.1167 157.956C90.1167 159.677 91.5119 161.072 93.233 161.072H156.992C158.713 161.072 160.109 159.677 160.109 157.956C160.109 156.235 158.713 154.84 156.992 154.84Z" fill="white"/>
<path d="M156.992 161.379H93.2223C92.7559 161.405 92.289 161.336 91.8501 161.175C91.4113 161.015 91.0099 160.767 90.6703 160.446C90.3308 160.125 90.0603 159.738 89.8754 159.309C89.6906 158.88 89.5952 158.418 89.5952 157.951C89.5952 157.483 89.6906 157.021 89.8754 156.592C90.0603 156.163 90.3308 155.776 90.6703 155.455C91.0099 155.134 91.4113 154.886 91.8501 154.726C92.289 154.565 92.7559 154.496 93.2223 154.523H156.992C157.868 154.572 158.692 154.955 159.294 155.592C159.897 156.23 160.232 157.074 160.232 157.951C160.232 158.828 159.897 159.672 159.294 160.309C158.692 160.946 157.868 161.329 156.992 161.379V161.379ZM93.2223 155.157C92.8408 155.133 92.4583 155.188 92.0986 155.317C91.7389 155.447 91.4096 155.649 91.1309 155.91C90.8523 156.172 90.6302 156.488 90.4784 156.839C90.3266 157.19 90.2482 157.568 90.2482 157.951C90.2482 158.333 90.3266 158.711 90.4784 159.062C90.6302 159.413 90.8523 159.729 91.1309 159.991C91.4096 160.253 91.7389 160.455 92.0986 160.584C92.4583 160.714 92.8408 160.768 93.2223 160.744H156.992C157.374 160.768 157.757 160.714 158.116 160.584C158.476 160.455 158.805 160.253 159.084 159.991C159.363 159.729 159.585 159.413 159.736 159.062C159.888 158.711 159.967 158.333 159.967 157.951C159.967 157.568 159.888 157.19 159.736 156.839C159.585 156.488 159.363 156.172 159.084 155.91C158.805 155.649 158.476 155.447 158.116 155.317C157.757 155.188 157.374 155.133 156.992 155.157H93.2223Z" fill="#292A2E"/>
<path d="M191.982 154.84H128.223C126.502 154.84 125.107 156.235 125.107 157.956C125.107 159.677 126.502 161.072 128.223 161.072H191.982C193.704 161.072 195.099 159.677 195.099 157.956C195.099 156.235 193.704 154.84 191.982 154.84Z" fill="white"/>
<path d="M191.983 161.379H128.223C127.757 161.405 127.29 161.336 126.851 161.175C126.412 161.015 126.011 160.767 125.671 160.446C125.332 160.125 125.061 159.738 124.876 159.309C124.692 158.88 124.596 158.418 124.596 157.951C124.596 157.483 124.692 157.021 124.876 156.592C125.061 156.163 125.332 155.776 125.671 155.455C126.011 155.134 126.412 154.886 126.851 154.726C127.29 154.565 127.757 154.496 128.223 154.523H191.993C192.46 154.496 192.927 154.565 193.366 154.726C193.804 154.886 194.206 155.134 194.545 155.455C194.885 155.776 195.156 156.163 195.34 156.592C195.525 157.021 195.621 157.483 195.621 157.951C195.621 158.418 195.525 158.88 195.34 159.309C195.156 159.738 194.885 160.125 194.545 160.446C194.206 160.767 193.804 161.015 193.366 161.175C192.927 161.336 192.46 161.405 191.993 161.379H191.983ZM128.223 155.157C127.513 155.201 126.846 155.515 126.358 156.034C125.87 156.553 125.599 157.239 125.599 157.951C125.599 158.663 125.87 159.348 126.358 159.867C126.846 160.386 127.513 160.7 128.223 160.744H191.993C192.375 160.768 192.757 160.714 193.117 160.584C193.477 160.455 193.806 160.253 194.085 159.991C194.364 159.729 194.586 159.413 194.737 159.062C194.889 158.711 194.968 158.333 194.968 157.951C194.968 157.568 194.889 157.19 194.737 156.839C194.586 156.488 194.364 156.172 194.085 155.91C193.806 155.649 193.477 155.447 193.117 155.317C192.757 155.188 192.375 155.133 191.993 155.157H128.223Z" fill="#292A2E"/>
<path d="M147.873 115.41H86.0271C85.0176 115.41 84.0424 115.043 83.2838 114.377C82.5251 113.711 82.035 112.792 81.9048 111.791L77.8153 80.3756C77.6725 79.281 77.97 78.1745 78.6425 77.299C79.315 76.4236 80.3074 75.8509 81.4018 75.7066C81.5802 75.6956 81.7592 75.6956 81.9376 75.7066H143.783C144.793 75.7061 145.768 76.0732 146.527 76.7393C147.285 77.4053 147.775 78.3248 147.906 79.3259L151.995 110.741C152.069 111.283 152.034 111.835 151.893 112.364C151.753 112.893 151.509 113.389 151.175 113.823C150.842 114.257 150.425 114.621 149.951 114.893C149.476 115.166 148.952 115.341 148.409 115.41C148.23 115.421 148.051 115.421 147.873 115.41Z" fill="#292A2E"/>
<path opacity="0.8" d="M147.873 115.41H86.0271C85.0176 115.41 84.0424 115.043 83.2838 114.377C82.5251 113.711 82.035 112.792 81.9048 111.791L77.8153 80.3756C77.6725 79.281 77.97 78.1745 78.6425 77.299C79.315 76.4236 80.3074 75.8509 81.4018 75.7066C81.5802 75.6956 81.7592 75.6956 81.9376 75.7066H143.783C144.793 75.7061 145.768 76.0732 146.527 76.7393C147.285 77.4053 147.775 78.3248 147.906 79.3259L151.995 110.741C152.069 111.283 152.034 111.835 151.893 112.364C151.753 112.893 151.509 113.389 151.175 113.823C150.842 114.257 150.425 114.621 149.951 114.893C149.476 115.166 148.952 115.341 148.409 115.41C148.23 115.421 148.051 115.421 147.873 115.41Z" fill="white"/>
<path d="M147.873 115.727H86.0273C84.9404 115.723 83.8917 115.326 83.0754 114.608C82.2592 113.89 81.7307 112.901 81.5879 111.823L77.4984 80.4085C77.3463 79.2313 77.6673 78.042 78.3909 77.1011C79.1144 76.1603 80.1816 75.5448 81.3583 75.3895H81.9378H143.783C144.87 75.3933 145.919 75.7909 146.735 76.5087C147.552 77.2264 148.08 78.2156 148.223 79.2932L152.312 110.708C152.444 111.865 152.12 113.027 151.41 113.949C150.7 114.872 149.659 115.482 148.507 115.65C148.298 115.689 148.086 115.715 147.873 115.727V115.727ZM81.9378 75.9909C81.4329 75.9909 80.9329 76.0906 80.4665 76.2841C80.0002 76.4777 79.5766 76.7614 79.22 77.1189C78.8635 77.4765 78.581 77.9009 78.3888 78.3678C78.1966 78.8347 78.0983 79.3349 78.0998 79.8399C78.0998 80.0039 78.0998 80.1679 78.0998 80.3319L82.2002 111.747C82.322 112.671 82.7748 113.519 83.4746 114.134C84.1744 114.75 85.0736 115.09 86.0054 115.093H147.851C148.872 115.093 149.851 114.687 150.573 113.965C151.295 113.244 151.7 112.265 151.7 111.244C151.711 111.08 151.711 110.916 151.7 110.752L147.611 79.3369C147.486 78.4121 147.031 77.5637 146.33 76.9485C145.628 76.3334 144.727 75.9932 143.794 75.9909H81.9378Z" fill="#292A2E"/>
<path d="M151.372 115.41H89.5261C88.5166 115.41 87.5414 115.043 86.7828 114.377C86.0242 113.711 85.534 112.792 85.4038 111.791L81.3034 80.3756C81.2328 79.8328 81.2698 79.2814 81.4124 78.7529C81.555 78.2244 81.8004 77.7292 82.1345 77.2956C82.4686 76.862 82.8849 76.4984 83.3595 76.2258C83.8342 75.9531 84.3579 75.7767 84.9008 75.7066C85.0792 75.6956 85.2582 75.6956 85.4366 75.7066H147.282C148.291 75.7084 149.265 76.0763 150.023 76.742C150.781 77.4076 151.272 78.3257 151.405 79.3259L155.494 110.741C155.637 111.835 155.339 112.942 154.667 113.817C153.994 114.693 153.002 115.266 151.908 115.41C151.729 115.421 151.55 115.421 151.372 115.41Z" fill="white"/>
<path d="M151.372 115.727H89.5258C88.4383 115.725 87.3883 115.329 86.5716 114.611C85.7548 113.892 85.227 112.902 85.0864 111.823L80.9969 80.4084C80.8449 79.2313 81.1658 78.0419 81.8894 77.1011C82.613 76.1603 83.6801 75.5447 84.8568 75.3895C85.0498 75.3786 85.2433 75.3786 85.4363 75.3895H147.282C148.369 75.3933 149.418 75.7909 150.234 76.5086C151.05 77.2264 151.579 78.2156 151.721 79.2931L155.811 110.708C155.963 111.887 155.64 113.078 154.915 114.019C154.189 114.96 153.119 115.574 151.94 115.727C151.751 115.738 151.561 115.738 151.372 115.727V115.727ZM85.4363 75.9909C84.4155 75.9909 83.4365 76.3964 82.7147 77.1182C81.9929 77.8401 81.5874 78.8191 81.5874 79.8399C81.5765 80.0037 81.5765 80.1681 81.5874 80.3319L85.6769 111.747C85.8011 112.672 86.2561 113.52 86.9577 114.135C87.6593 114.75 88.56 115.09 89.493 115.093H151.339C151.844 115.093 152.344 114.993 152.81 114.8C153.276 114.606 153.7 114.322 154.056 113.965C154.413 113.607 154.695 113.183 154.888 112.716C155.08 112.249 155.178 111.749 155.177 111.244C155.188 111.08 155.188 110.916 155.177 110.752L151.087 79.3369C150.965 78.413 150.513 77.5647 149.813 76.9494C149.113 76.3341 148.214 75.9935 147.282 75.9909H85.4363Z" fill="#292A2E"/>
<path d="M199.45 122.577L198.819 122.641L212.176 254.822L212.807 254.759L199.45 122.577Z" fill="#494949"/>
<path d="M144.702 27.4416C144.702 27.4416 148.813 24.3471 149.83 17.2069C150.617 11.674 145.522 15.2605 145.522 15.2605C145.522 15.2605 146.047 11.2694 143.149 11.6631C140.252 12.0567 138.666 16.2556 138.666 16.2556" fill="#0C0C0C"/>
<path d="M128.136 12.1333C128.136 12.1333 113.724 13.686 118.984 33.2041L120.252 33.2916L122.844 33.4666" fill="#0C0C0C"/>
<path d="M142.285 53.597C142.23 53.597 141.52 65.2532 127.972 64.2363C118.59 63.5365 115.244 53.5752 115.025 53.5752C116.042 53.3674 117.289 53.0394 117.792 52.93C118.875 52.6796 119.856 52.1048 120.605 51.2823C121.353 50.4598 121.833 49.4288 121.98 48.3266C122.253 46.6755 121.783 38.2122 121.925 36.5392L136.326 39.7539C136.129 43.2858 134.718 51.4757 139.606 52.8754C140.481 53.1706 141.367 53.3893 142.285 53.597Z" fill="#E98862"/>
<path opacity="0.52" d="M136.534 49.584C136.31 48.8728 136.164 48.1396 136.097 47.3971C135.943 45.6673 135.976 43.926 136.195 42.2032C133.268 41.8075 130.51 40.599 128.235 38.7151C127.961 39.6992 126.496 44.0183 126.901 44.9587C127.732 46.6754 131.285 49.584 136.534 49.584Z" fill="#0C0C0C"/>
<path d="M133.56 47.2658C127.874 46.7629 121.072 43.1763 120.985 35.4566L120.887 28.5022C120.788 20.848 124.768 14.4841 132.029 14.3967C139.289 14.2982 144.789 20.52 144.888 28.1742V31.2577C144.877 32.3148 144.8 33.3702 144.658 34.4178C144.286 37.1842 143.707 41.4049 141.826 44.2588C139.945 47.1128 137.19 47.5939 133.56 47.2658Z" fill="#E98862"/>
<path d="M136.195 40.2022C137.368 40.2539 138.536 40.0292 139.606 39.5461C139.651 39.5268 139.686 39.4909 139.705 39.4459C139.723 39.4009 139.723 39.3506 139.705 39.3056C139.683 39.2627 139.647 39.2291 139.603 39.211C139.559 39.1929 139.509 39.1915 139.464 39.2072C138.515 39.7049 137.446 39.9296 136.377 39.8563C135.307 39.7829 134.279 39.4144 133.406 38.7916L133.308 38.726C133.286 38.7149 133.262 38.7084 133.237 38.7068C133.212 38.7052 133.187 38.7086 133.164 38.7167C133.14 38.7249 133.119 38.7377 133.1 38.7543C133.082 38.7709 133.067 38.791 133.057 38.8135C133.041 38.8537 133.039 38.8979 133.051 38.9394C133.062 38.9809 133.088 39.0174 133.122 39.0431H133.188C134.051 39.7228 135.099 40.1267 136.195 40.2022Z" fill="#0C0C0C"/>
<path d="M136.14 41.9626C136.351 41.979 136.563 41.979 136.774 41.9626C136.814 41.9527 136.85 41.9295 136.876 41.8968C136.901 41.8641 136.915 41.8237 136.915 41.7822C136.915 41.7407 136.901 41.7004 136.876 41.6677C136.85 41.635 136.814 41.6118 136.774 41.6018C136.442 41.6628 136.1 41.6524 135.772 41.5713C135.444 41.4902 135.137 41.3404 134.871 41.1316C134.855 41.113 134.835 41.0981 134.812 41.0879C134.789 41.0777 134.765 41.0724 134.74 41.0724C134.715 41.0724 134.691 41.0777 134.668 41.0879C134.646 41.0981 134.625 41.113 134.609 41.1316C134.574 41.1665 134.555 41.2136 134.555 41.2628C134.555 41.312 134.574 41.3592 134.609 41.394V41.394C135.04 41.7516 135.58 41.9521 136.14 41.9626V41.9626Z" fill="#0C0C0C"/>
<path d="M142.493 32.7667C142.989 32.7667 143.39 32.3652 143.39 31.87C143.39 31.3748 142.989 30.9734 142.493 30.9734C141.998 30.9734 141.597 31.3748 141.597 31.87C141.597 32.3652 141.998 32.7667 142.493 32.7667Z" fill="#0C0C0C"/>
<path d="M133.756 32.22C134.252 32.22 134.653 31.8186 134.653 31.3234C134.653 30.8282 134.252 30.4268 133.756 30.4268C133.261 30.4268 132.86 30.8282 132.86 31.3234C132.86 31.8186 133.261 32.22 133.756 32.22Z" fill="#0C0C0C"/>
<path d="M121.455 37.8075C119.268 37.8075 117.431 35.4893 117.409 33.2915C117.388 31.0937 119.148 29.8362 121.357 29.8143L122.516 31.2796L123.358 37.7747L121.455 37.8075Z" fill="#E98862"/>
<path d="M123.653 34.2537C123.653 34.2537 124.451 23.3411 127.731 22.7069C129.918 22.2586 135.276 25.3858 140.23 24.4345C142.417 24.03 144.45 24.5658 144.658 25.5827C144.746 25.9872 146.091 20.1154 142.701 15.7416C140 12.2207 131.165 11.2256 127.141 12.3847C116.01 15.5776 120.919 30.3173 120.919 30.3173L121.422 34.0788L123.653 34.2537Z" fill="#0C0C0C"/>
<path d="M137.573 37.6435C138.284 37.6435 139.475 37.5451 139.475 37.0203C139.475 36.4954 138.218 31.8264 138.065 31.2906C138.06 31.2673 138.05 31.2454 138.036 31.2263C138.022 31.2072 138.004 31.1914 137.983 31.18C137.962 31.1685 137.939 31.1617 137.916 31.1601C137.892 31.1584 137.868 31.1619 137.846 31.1703C137.804 31.1849 137.768 31.2134 137.744 31.2512C137.72 31.2889 137.71 31.3337 137.715 31.378C138.273 33.4884 139.104 36.725 139.115 37.0203C138.631 37.236 138.101 37.3262 137.573 37.2827C137.549 37.2826 137.525 37.2875 137.503 37.297C137.481 37.3064 137.461 37.3203 137.445 37.3377C137.429 37.3552 137.416 37.3758 137.408 37.3983C137.4 37.4208 137.396 37.4447 137.398 37.4686C137.396 37.491 137.399 37.5135 137.407 37.5347C137.415 37.5559 137.426 37.5753 137.442 37.5917C137.457 37.6081 137.476 37.6212 137.496 37.6301C137.517 37.639 137.539 37.6436 137.562 37.6435H137.573Z" fill="#0C0C0C"/>
<path d="M139.956 27.0151C140.704 26.8072 141.494 26.8072 142.241 27.0151C142.609 27.1155 142.959 27.2703 143.28 27.4743C143.59 27.6743 143.876 27.9091 144.133 28.1741C144.158 28.1985 144.177 28.2275 144.19 28.2594C144.203 28.2913 144.21 28.3255 144.21 28.36C144.21 28.3946 144.203 28.4288 144.19 28.4607C144.177 28.4926 144.158 28.5215 144.133 28.5459C144.083 28.5928 144.016 28.6188 143.947 28.6188C143.878 28.6188 143.812 28.5928 143.761 28.5459V28.5459C143.521 28.3259 143.252 28.1384 142.963 27.9882C142.685 27.8291 142.382 27.7182 142.066 27.6602C141.449 27.5288 140.808 27.5628 140.208 27.7586V27.7586C140.159 27.7766 140.107 27.7847 140.055 27.7826C140.003 27.7805 139.952 27.7682 139.905 27.7464C139.857 27.7245 139.815 27.6936 139.78 27.6554C139.744 27.6172 139.717 27.5723 139.699 27.5235C139.681 27.4747 139.673 27.4228 139.675 27.3709C139.677 27.3189 139.69 27.2678 139.711 27.2206C139.733 27.1734 139.764 27.1309 139.802 27.0957C139.841 27.0604 139.885 27.033 139.934 27.0151V27.0151H139.956Z" fill="#0C0C0C"/>
<path d="M134.664 27.4634C134.092 27.1898 133.459 27.0693 132.827 27.1135C132.508 27.1332 132.194 27.2033 131.897 27.3213C131.592 27.4333 131.301 27.5839 131.034 27.7696V27.7696C131.004 27.7876 130.972 27.7996 130.937 27.8049C130.903 27.8102 130.869 27.8088 130.835 27.8007C130.802 27.7925 130.77 27.7779 130.742 27.7576C130.714 27.7372 130.691 27.7116 130.673 27.6821C130.63 27.634 130.606 27.5717 130.606 27.5072C130.606 27.4426 130.63 27.3804 130.673 27.3322C130.966 27.1021 131.285 26.9076 131.624 26.7527C131.969 26.5893 132.338 26.4822 132.718 26.4356C133.486 26.3283 134.269 26.4342 134.981 26.7418C135.028 26.7626 135.071 26.7925 135.107 26.8299C135.143 26.8673 135.171 26.9113 135.19 26.9596C135.208 27.0078 135.218 27.0593 135.216 27.111C135.215 27.1628 135.204 27.2138 135.183 27.2612C135.162 27.3085 135.132 27.3514 135.095 27.3872C135.058 27.423 135.014 27.4511 134.965 27.4699C134.917 27.4887 134.866 27.4978 134.814 27.4967C134.762 27.4956 134.711 27.4843 134.664 27.4634V27.4634V27.4634Z" fill="#0C0C0C"/>
<path d="M138.934 20.3263C140.567 19.9929 141.493 17.77 141.001 15.3613C140.509 12.9526 138.787 11.2702 137.153 11.6036C135.52 11.9369 134.594 14.1598 135.086 16.5685C135.577 18.9772 137.3 20.6596 138.934 20.3263Z" fill="#0C0C0C"/>
<path d="M229.991 238.117C229.991 238.117 231.686 246.919 239.931 247.411C248.175 247.903 246.382 254.464 246.382 254.464H214.891V238.74L229.991 238.117Z" fill="#021327"/>
<path d="M170.07 232.573C170.07 232.573 167.708 241.222 174.881 245.301C182.054 249.38 177.56 254.475 177.56 254.475L149.294 240.577L156.249 226.45L170.07 232.573Z" fill="#021327"/>
<path d="M152.564 230.124L176.39 154.938H133.199C124.528 154.938 120.908 147.579 120.908 138.897C120.908 130.215 129.437 122.616 138.119 122.616H196.422C199.209 122.715 201.936 123.458 204.388 124.785C206.841 126.113 208.953 127.99 210.56 130.27C213.458 134.644 212.671 141.543 210.56 146.409L172.399 239.101" fill="#262626"/>
<path opacity="0.8" d="M152.564 230.124L176.39 154.938H133.199C124.528 154.938 120.908 147.579 120.908 138.897C120.908 130.215 129.437 122.616 138.119 122.616H196.422C199.209 122.715 201.936 123.458 204.388 124.785C206.841 126.113 208.953 127.99 210.56 130.27C213.458 134.644 212.671 141.543 210.56 146.409L172.399 239.101" fill="#0A0A0A"/>
<path d="M213.075 246.307L173.219 154.938H120.897C108.64 153.976 103.019 147.284 103.194 138.536C103.369 129.789 107.71 121.511 116.239 121.511H186.778C193.087 121.643 198.051 128.608 200.391 134.469L233.523 240.665" fill="#262626"/>
<path d="M99.6298 121.653C99.6298 121.653 97.3008 136.809 100.986 145.239C105.589 155.758 122.855 154.938 122.855 154.938L121.893 121.555L99.6298 121.653Z" fill="#262626"/>
<path d="M201.878 121.358L164.92 113.704C163.378 113.385 161.942 112.681 160.745 111.659C159.549 110.636 158.63 109.327 158.075 107.854L143.532 69.5833C142.64 67.2633 142.706 64.6841 143.716 62.413C144.726 60.1419 146.597 58.3651 148.917 57.4733C151.237 56.5816 153.816 56.648 156.087 57.6579C158.358 58.6678 160.135 60.5386 161.027 62.8586V62.9461L173.744 96.4604L205.683 103.021C205.683 103.021 202.523 121.489 201.878 121.358Z" fill="#32BEEF"/>
<path d="M159.124 79.2821C158.698 84.2901 155.68 115.574 155.265 121.752H99.6516C99.3345 116.186 98.2957 92.5348 97.082 81.6331C95.9885 71.2453 95.5074 65.3078 96.8414 62.0821C99.1923 56.3852 105.075 54.3296 110.138 53.6407C113.232 53.2252 117.879 52.9299 117.879 52.9299C117.879 52.9299 118.273 60.8903 127.666 61.3386C140.448 61.94 139.595 52.9299 139.694 52.9299C141.771 52.9299 153.045 54.4389 155.866 56.2759C157.472 57.2513 158.796 58.6287 159.706 60.2721C160.617 61.9155 161.084 63.768 161.06 65.6468C161.071 69.3864 159.617 73.5962 159.124 79.2821Z" fill="#32BEEF"/>
<path d="M156.938 104.847C156.896 104.842 156.858 104.82 156.832 104.788C156.805 104.755 156.792 104.714 156.795 104.672V104.672L158.239 87.3299C158.244 87.3031 158.258 87.2785 158.277 87.2591C158.297 87.2397 158.321 87.2263 158.348 87.2206V87.2206C158.369 87.2203 158.389 87.2246 158.408 87.2331C158.427 87.2415 158.444 87.254 158.457 87.2696C158.471 87.2852 158.481 87.3036 158.486 87.3235C158.492 87.3433 158.493 87.3642 158.49 87.3846V87.3846L157.102 104.716C157.094 104.753 157.073 104.787 157.043 104.811C157.013 104.835 156.976 104.848 156.938 104.847V104.847Z" fill="#0C0C0C"/>
<path d="M183.432 115.246L195.624 77.7404C195.841 77.0719 196.268 76.4911 196.841 76.0836C197.414 75.6761 198.103 75.4634 198.806 75.4769H251.685C252.555 75.4769 253.389 75.8225 254.004 76.4377C254.62 77.0529 254.965 77.8873 254.965 78.7573C254.966 79.1029 254.911 79.4463 254.801 79.7742L239.438 117.28C239.225 117.941 238.807 118.518 238.245 118.927C237.683 119.335 237.006 119.555 236.311 119.554H186.548C185.678 119.554 184.844 119.208 184.228 118.593C183.613 117.978 183.268 117.144 183.268 116.274C183.267 115.924 183.323 115.577 183.432 115.246V115.246Z" fill="#292A2E"/>
<path d="M183.432 115.246L195.624 77.7404C195.841 77.0719 196.268 76.4911 196.841 76.0836C197.414 75.6761 198.103 75.4634 198.806 75.4769H251.685C252.555 75.4769 253.389 75.8225 254.004 76.4377C254.62 77.0529 254.965 77.8873 254.965 78.7573C254.966 79.1029 254.911 79.4463 254.801 79.7742L239.438 117.28C239.225 117.941 238.807 118.518 238.245 118.927C237.683 119.335 237.006 119.555 236.311 119.554H186.548C185.678 119.554 184.844 119.208 184.228 118.593C183.613 117.978 183.268 117.144 183.268 116.274C183.267 115.924 183.323 115.577 183.432 115.246V115.246Z" fill="#292A2E"/>
<path d="M193.393 116.514H160.108C159.281 116.514 158.61 117.185 158.61 118.012V118.056C158.61 118.883 159.281 119.554 160.108 119.554H193.393C194.22 119.554 194.891 118.883 194.891 118.056V118.012C194.891 117.185 194.22 116.514 193.393 116.514Z" fill="#292A2E"/>
<path d="M193.393 116.514H160.108C159.281 116.514 158.61 117.185 158.61 118.012V118.056C158.61 118.883 159.281 119.554 160.108 119.554H193.393C194.22 119.554 194.891 118.883 194.891 118.056V118.012C194.891 117.185 194.22 116.514 193.393 116.514Z" fill="#292A2E"/>
<path d="M217.515 104.563C220.395 104.563 222.73 102.228 222.73 99.347C222.73 96.4664 220.395 94.1312 217.515 94.1312C214.634 94.1312 212.299 96.4664 212.299 99.347C212.299 102.228 214.634 104.563 217.515 104.563Z" fill="white"/>
<path d="M180.644 106.465L172.344 103.557L173.536 103.469C173.92 103.436 174.277 103.258 174.535 102.972C174.792 102.686 174.932 102.313 174.925 101.928C174.9 101.539 174.723 101.176 174.432 100.916C174.142 100.656 173.761 100.521 173.372 100.539H173.296L158.6 102.092L158.982 106.815C159.1 108.281 159.654 109.679 160.571 110.828C161.489 111.978 162.729 112.827 164.132 113.267L170.496 115.257C170.826 115.362 171.182 115.352 171.506 115.229C171.83 115.106 172.102 114.877 172.279 114.579C172.427 114.303 172.485 113.988 172.444 113.678C172.402 113.368 172.264 113.078 172.049 112.851C172.061 112.84 172.07 112.826 172.077 112.811C172.083 112.796 172.087 112.78 172.087 112.764C172.087 112.747 172.083 112.731 172.077 112.716C172.07 112.701 172.061 112.687 172.049 112.676V112.676L173.219 113.037C173.585 113.163 173.985 113.144 174.337 112.983C174.69 112.822 174.966 112.532 175.111 112.173C175.232 111.851 175.235 111.496 175.119 111.171C175.003 110.847 174.775 110.574 174.477 110.402L174.969 110.555C175.297 110.666 175.653 110.659 175.976 110.535C176.3 110.411 176.57 110.178 176.74 109.877C176.923 109.545 176.97 109.155 176.87 108.789C176.77 108.424 176.531 108.112 176.204 107.92L179.66 109.133C179.995 109.223 180.353 109.183 180.661 109.022C180.969 108.861 181.205 108.591 181.324 108.264C181.442 107.937 181.433 107.577 181.299 107.256C181.165 106.936 180.915 106.677 180.6 106.531L180.644 106.465Z" fill="#E98862"/>
<path opacity="0.2" d="M176.138 107.996H176.084L172.749 106.782C172.731 106.778 172.714 106.769 172.7 106.757C172.686 106.746 172.674 106.731 172.666 106.715C172.657 106.698 172.653 106.68 172.652 106.662C172.651 106.643 172.654 106.625 172.661 106.608C172.674 106.573 172.699 106.545 172.731 106.529C172.764 106.513 172.801 106.509 172.836 106.52L176.182 107.745C176.2 107.75 176.216 107.758 176.231 107.77C176.245 107.782 176.257 107.796 176.265 107.813C176.273 107.829 176.278 107.847 176.279 107.866C176.279 107.884 176.276 107.903 176.269 107.92C176.259 107.946 176.24 107.968 176.217 107.983C176.194 107.999 176.166 108.007 176.138 108.007V107.996Z" fill="#0A0A0A"/>
<path opacity="0.2" d="M174.444 110.435L171.809 109.494C171.791 109.489 171.774 109.481 171.76 109.469C171.746 109.457 171.734 109.443 171.726 109.426C171.718 109.41 171.713 109.392 171.712 109.373C171.711 109.355 171.714 109.336 171.721 109.319C171.734 109.285 171.759 109.257 171.791 109.241C171.824 109.224 171.861 109.221 171.896 109.232V109.232L174.531 110.161C174.566 110.174 174.594 110.199 174.61 110.231C174.626 110.264 174.629 110.301 174.619 110.336C174.606 110.371 174.582 110.4 174.55 110.418C174.518 110.436 174.48 110.442 174.444 110.435Z" fill="#0A0A0A"/>
<path opacity="0.2" d="M171.962 112.895L170.726 112.414C170.708 112.409 170.692 112.4 170.677 112.389C170.663 112.377 170.652 112.362 170.643 112.346C170.635 112.329 170.63 112.311 170.63 112.293C170.629 112.274 170.632 112.256 170.639 112.239C170.646 112.221 170.656 112.206 170.67 112.193C170.683 112.179 170.698 112.169 170.716 112.162C170.733 112.155 170.751 112.151 170.77 112.151C170.789 112.151 170.807 112.155 170.825 112.162V112.162L172.06 112.632C172.095 112.64 172.125 112.66 172.145 112.69C172.164 112.72 172.171 112.756 172.164 112.791C172.157 112.826 172.136 112.856 172.106 112.876C172.077 112.895 172.04 112.902 172.005 112.895H171.962Z" fill="#0A0A0A"/>
<path d="M165.105 99.3142H130.268L117.081 67.1339L97.3989 75.4004L113.801 113.562L113.965 113.945C114.767 115.799 116.121 117.362 117.843 118.42C119.564 119.479 121.57 119.981 123.587 119.86L165.565 117.389L165.105 99.3142Z" fill="#32BEEF"/>
<path d="M123.084 120.024C121.132 120.022 119.222 119.451 117.589 118.381C115.956 117.311 114.67 115.788 113.888 113.999L113.724 113.617L99.7061 81.1082L100.001 80.9879L114.216 113.879C115.01 115.701 116.344 117.237 118.037 118.279C119.729 119.321 121.701 119.819 123.685 119.707L165.51 117.236L164.909 99.4673H130.115L120.077 74.7225L120.372 74.6022L130.421 99.1283H165.313L165.849 117.509H165.696L123.664 120.024H123.084Z" fill="#0C0C0C"/>
<path d="M83.2366 123.365L69.9512 254.891L70.579 254.954L83.8645 123.428L83.2366 123.365Z" fill="#494949"/>
<path d="M138.411 123.633L125.125 255.159L125.753 255.222L139.039 123.696L138.411 123.633Z" fill="#494949"/>
<path d="M254.652 122.572L254.021 122.635L267.378 254.817L268.009 254.753L254.652 122.572Z" fill="#494949"/>
<path d="M73.1574 120.024H266.698C267.386 120.024 268.045 120.297 268.531 120.783C269.017 121.269 269.29 121.928 269.29 122.616V122.616C269.29 123.303 269.017 123.962 268.531 124.448C268.045 124.934 267.386 125.207 266.698 125.207H73.1574C72.4701 125.207 71.8109 124.934 71.3249 124.448C70.8389 123.962 70.5659 123.303 70.5659 122.616V122.616C70.5659 121.928 70.8389 121.269 71.3249 120.783C71.8109 120.297 72.4701 120.024 73.1574 120.024V120.024Z" fill="#292A2E"/>
<path opacity="0.8" d="M73.1574 120.024H266.698C267.386 120.024 268.045 120.297 268.531 120.783C269.017 121.269 269.29 121.928 269.29 122.616V122.616C269.29 123.303 269.017 123.962 268.531 124.448C268.045 124.934 267.386 125.207 266.698 125.207H73.1574C72.4701 125.207 71.8109 124.934 71.3249 124.448C70.8389 123.962 70.5659 123.303 70.5659 122.616V122.616C70.5659 121.928 70.8389 121.269 71.3249 120.783C71.8109 120.297 72.4701 120.024 73.1574 120.024V120.024Z" fill="white"/>
<path d="M266.687 125.491H73.1681C72.7862 125.496 72.4071 125.425 72.0526 125.283C71.698 125.14 71.375 124.93 71.1018 124.663C70.8287 124.396 70.6109 124.078 70.4607 123.726C70.3106 123.375 70.2311 122.998 70.2267 122.616C70.2224 122.234 70.2934 121.855 70.4356 121.5C70.5778 121.146 70.7884 120.823 71.0555 120.549C71.3225 120.276 71.6407 120.058 71.992 119.908C72.3432 119.758 72.7206 119.679 73.1025 119.674H266.644C267.415 119.667 268.158 119.967 268.708 120.507C269.259 121.047 269.572 121.784 269.58 122.556C269.587 123.327 269.287 124.07 268.747 124.62C268.207 125.171 267.47 125.484 266.698 125.491H266.687ZM73.1463 120.309C72.8476 120.309 72.5518 120.367 72.2759 120.482C72 120.596 71.7492 120.763 71.538 120.975C71.3268 121.186 71.1593 121.437 71.045 121.713C70.9307 121.988 70.8719 122.284 70.8719 122.583C70.8719 122.882 70.9307 123.177 71.045 123.453C71.1593 123.729 71.3268 123.98 71.538 124.191C71.7492 124.402 72 124.57 72.2759 124.684C72.5518 124.798 72.8476 124.857 73.1463 124.857H266.687C266.986 124.861 267.282 124.806 267.56 124.695C267.837 124.584 268.09 124.419 268.304 124.21C268.517 124.002 268.688 123.753 268.805 123.479C268.923 123.204 268.985 122.909 268.989 122.61C268.993 122.312 268.937 122.015 268.826 121.738C268.715 121.46 268.551 121.208 268.342 120.994C268.134 120.78 267.885 120.61 267.61 120.492C267.336 120.374 267.041 120.312 266.742 120.309H73.1681H73.1463Z" fill="#292A2E"/>
<path d="M130.476 120.024H266.688C267.375 120.024 268.034 120.297 268.52 120.783C269.006 121.269 269.279 121.928 269.279 122.616V122.616C269.279 123.303 269.006 123.962 268.52 124.448C268.034 124.934 267.375 125.207 266.688 125.207H130.476C129.789 125.207 129.13 124.934 128.644 124.448C128.158 123.962 127.885 123.303 127.885 122.616V122.616C127.885 121.928 128.158 121.269 128.644 120.783C129.13 120.297 129.789 120.024 130.476 120.024V120.024Z" fill="white"/>
<path d="M266.687 125.491H130.476C129.705 125.491 128.965 125.185 128.419 124.64C127.874 124.094 127.567 123.354 127.567 122.583C127.567 121.811 127.874 121.072 128.419 120.526C128.965 119.981 129.705 119.674 130.476 119.674H266.687C267.459 119.667 268.201 119.967 268.752 120.507C269.303 121.047 269.616 121.784 269.623 122.556C269.631 123.327 269.331 124.07 268.791 124.62C268.25 125.171 267.513 125.484 266.742 125.491H266.687ZM130.476 120.309C129.873 120.309 129.294 120.548 128.868 120.975C128.441 121.401 128.202 121.98 128.202 122.583C128.202 123.186 128.441 123.765 128.868 124.191C129.294 124.618 129.873 124.857 130.476 124.857H266.687C266.986 124.861 267.282 124.806 267.56 124.695C267.837 124.584 268.09 124.419 268.304 124.21C268.517 124.002 268.688 123.753 268.805 123.479C268.923 123.204 268.985 122.909 268.989 122.61C268.993 122.312 268.937 122.015 268.826 121.738C268.715 121.46 268.551 121.208 268.342 120.994C268.134 120.78 267.885 120.61 267.61 120.492C267.336 120.374 267.041 120.312 266.742 120.309H130.476Z" fill="#292A2E"/>
<path d="M287.058 254.672H65.2187C65.1607 254.672 65.1051 254.649 65.0641 254.608C65.023 254.567 65 254.511 65 254.453C65 254.395 65.023 254.34 65.0641 254.299C65.1051 254.258 65.1607 254.235 65.2187 254.235H287.058C287.116 254.235 287.172 254.258 287.213 254.299C287.254 254.34 287.277 254.395 287.277 254.453C287.277 254.511 287.254 254.567 287.213 254.608C287.172 254.649 287.116 254.672 287.058 254.672V254.672Z" fill="#292A2E"/>
<g opacity="0.65">
<path opacity="0.65" d="M287.058 254.672H65.2187C65.1607 254.672 65.1051 254.649 65.0641 254.608C65.023 254.567 65 254.511 65 254.453C65 254.395 65.023 254.34 65.0641 254.299C65.1051 254.258 65.1607 254.235 65.2187 254.235H287.058C287.116 254.235 287.172 254.258 287.213 254.299C287.254 254.34 287.277 254.395 287.277 254.453C287.277 254.511 287.254 254.567 287.213 254.608C287.172 254.649 287.116 254.672 287.058 254.672V254.672Z" fill="#292A2E"/>
</g>
<path d="M328.241 79.4378H326.203C326.03 79.4429 325.861 79.3911 325.721 79.2904C325.581 79.1897 325.478 79.0457 325.429 78.8808C325.276 78.4355 325.093 78.0012 324.88 77.5812C324.808 77.4345 324.784 77.2694 324.811 77.1085C324.837 76.9476 324.912 76.7987 325.027 76.6822L326.477 75.2458C326.624 75.0993 326.706 74.9007 326.706 74.6937C326.706 74.4867 326.624 74.2882 326.477 74.1416L323.39 71.0636C323.318 70.99 323.232 70.9316 323.137 70.8916C323.042 70.8517 322.94 70.8312 322.837 70.8312C322.734 70.8312 322.631 70.8517 322.536 70.8916C322.441 70.9316 322.355 70.99 322.283 71.0636L320.813 72.5293C320.699 72.6438 320.551 72.7195 320.391 72.7458C320.231 72.7721 320.067 72.7477 319.921 72.6759C319.509 72.4717 319.083 72.2955 318.647 72.1482C318.494 72.0957 318.361 71.997 318.266 71.8657C318.171 71.7344 318.12 71.5771 318.118 71.4154V69.3438C318.118 69.2416 318.098 69.1404 318.058 69.0461C318.019 68.9518 317.961 68.8663 317.888 68.7945C317.815 68.7226 317.729 68.666 317.634 68.6278C317.539 68.5896 317.437 68.5705 317.334 68.5718H312.925C312.822 68.5705 312.721 68.5896 312.626 68.6278C312.53 68.666 312.444 68.7226 312.371 68.7945C312.298 68.8663 312.24 68.9518 312.201 69.0461C312.161 69.1404 312.141 69.2416 312.141 69.3438V69.3438V71.4251C312.142 71.586 312.092 71.7432 311.999 71.8746C311.906 72.006 311.774 72.1051 311.621 72.158C311.182 72.3034 310.753 72.4797 310.338 72.6857C310.192 72.7574 310.028 72.7819 309.868 72.7556C309.708 72.7293 309.561 72.6536 309.446 72.5391L307.976 71.0734C307.904 70.9998 307.818 70.9413 307.723 70.9014C307.628 70.8615 307.526 70.8409 307.423 70.8409C307.319 70.8409 307.217 70.8615 307.122 70.9014C307.027 70.9413 306.941 70.9998 306.869 71.0734L303.753 74.1807C303.606 74.3273 303.524 74.5258 303.524 74.7328C303.524 74.9398 303.606 75.1384 303.753 75.2849L305.193 76.7213C305.31 76.8363 305.387 76.9853 305.414 77.1469C305.44 77.3085 305.414 77.4743 305.34 77.6203C305.131 78.0421 304.948 78.4761 304.791 78.9199C304.738 79.0719 304.639 79.2034 304.507 79.2963C304.375 79.3892 304.218 79.4386 304.057 79.4378H302.028C301.82 79.4378 301.621 79.5202 301.474 79.6668C301.327 79.8134 301.244 80.0122 301.244 80.2195V84.6167C301.244 84.8241 301.327 85.0229 301.474 85.1695C301.621 85.3161 301.82 85.3985 302.028 85.3985H303.988C304.152 85.3975 304.312 85.4492 304.444 85.546C304.577 85.6428 304.674 85.7795 304.723 85.9359C304.881 86.3886 305.064 86.8322 305.272 87.2648C305.343 87.4115 305.367 87.5766 305.341 87.7375C305.314 87.8984 305.239 88.0473 305.125 88.1638L303.733 89.5514C303.587 89.6979 303.504 89.8965 303.504 90.1035C303.504 90.3105 303.587 90.509 303.733 90.6556V90.6556L306.849 93.7629C306.996 93.9091 307.195 93.9912 307.403 93.9912C307.611 93.9912 307.81 93.9091 307.957 93.7629L309.319 92.4047C309.437 92.2898 309.588 92.2141 309.751 92.1879C309.914 92.1617 310.081 92.1862 310.23 92.2581C310.669 92.4811 311.124 92.6706 311.592 92.8249C311.746 92.8792 311.88 92.9797 311.975 93.1127C312.069 93.2456 312.121 93.4044 312.121 93.5675V95.5218C312.121 95.7291 312.204 95.928 312.351 96.0746C312.498 96.2212 312.697 96.3035 312.905 96.3035H317.315C317.523 96.3035 317.722 96.2212 317.869 96.0746C318.016 95.928 318.099 95.7291 318.099 95.5218V95.5218V93.5382C318.099 93.3751 318.151 93.2163 318.245 93.0833C318.34 92.9504 318.474 92.8499 318.628 92.7955C319.099 92.6413 319.557 92.4518 320 92.2288C320.147 92.1577 320.312 92.1336 320.474 92.1598C320.635 92.186 320.784 92.2613 320.901 92.3754L322.263 93.7336C322.41 93.8798 322.609 93.9619 322.817 93.9619C323.025 93.9619 323.224 93.8798 323.371 93.7336L326.497 90.6263C326.643 90.4797 326.726 90.2812 326.726 90.0742C326.726 89.8672 326.643 89.6686 326.497 89.5221V89.5221L325.095 88.1345C324.981 88.018 324.905 87.8691 324.879 87.7082C324.853 87.5473 324.877 87.3822 324.948 87.2355C325.16 86.8047 325.343 86.3608 325.497 85.9066C325.549 85.7502 325.648 85.6141 325.782 85.5176C325.916 85.4211 326.077 85.3691 326.242 85.3692H328.202C328.304 85.3692 328.406 85.3489 328.5 85.3095C328.595 85.2701 328.681 85.2123 328.753 85.1396C328.825 85.0669 328.881 84.9806 328.92 84.8858C328.958 84.7911 328.977 84.6896 328.976 84.5874V84.5874V80.1902C328.977 80.088 328.958 79.9866 328.92 79.8918C328.881 79.797 328.825 79.7108 328.753 79.638C328.681 79.5653 328.595 79.5076 328.5 79.4682C328.406 79.4288 328.304 79.4085 328.202 79.4085L328.241 79.4378ZM315.13 88.9162C313.841 88.9162 312.581 88.5351 311.509 87.8211C310.438 87.1071 309.602 86.0922 309.109 84.9049C308.616 83.7175 308.487 82.4109 308.738 81.1504C308.99 79.8899 309.61 78.7321 310.522 77.8233C311.433 76.9145 312.594 76.2956 313.858 76.0449C315.122 75.7942 316.433 75.9229 317.623 76.4147C318.814 76.9065 319.832 77.7394 320.548 78.808C321.264 79.8766 321.646 81.1329 321.646 82.4181V82.4181C321.646 84.1415 320.959 85.7944 319.737 87.013C318.515 88.2316 316.858 88.9162 315.13 88.9162V88.9162Z" fill="#1075F1" fill-opacity="0.5"/>
<defs>
<filter id="filter0_b_214_821" x="-20" y="-20" width="433.571" height="306" filterUnits="userSpaceOnUse" color-interpolation-filters="sRGB">
<feFlood flood-opacity="0" result="BackgroundImageFix"/>
<feGaussianBlur in="BackgroundImage" stdDeviation="10"/>
<feComposite in2="SourceAlpha" operator="in" result="effect1_backgroundBlur_214_821"/>
<feBlend mode="normal" in="SourceGraphic" in2="effect1_backgroundBlur_214_821" result="shape"/>
</filter>
<linearGradient id="paint0_linear_214_821" x1="359.571" y1="12" x2="5.57127" y2="275.5" gradientUnits="userSpaceOnUse">
<stop stop-color="#32BEEF" stop-opacity="0.25"/>
<stop offset="1" stop-color="#32BEEF" stop-opacity="0.12"/>
</linearGradient>
</defs>
</svg>
