<?xml version="1.0" encoding="utf-8"?>
<svg xmlns="http://www.w3.org/2000/svg" width="643.564" height="477.23" viewBox="0 0 643.564 477.23">
  <g id="Group_282" data-name="Group 282" transform="translate(-316.506 -3148.707)">
    <path id="Path_467" data-name="Path 467" d="M2681.7,1753.392c-108.594,42.151-317.365,2.726-122.583,202.947s226.506,83.5,335.1,41.345,242.107-123.3,99.277-209.948S2790.3,1711.242,2681.7,1753.392Z" transform="translate(2864.828 5896.389) rotate(-166)" fill="#3e6e91" opacity="0.12"/>
    <g id="Group_202" data-name="Group 202" transform="translate(446.232 3163)">
      <rect id="Rectangle_409" data-name="Rectangle 409" width="91.961" height="5.88" transform="translate(104.521 178.825)" fill="#273240"/>
      <path id="Path_769" data-name="Path 769" d="M32.93,13.756V121.141h-5.88s-18.978-88.4,0-107.385C28.093,12.719,32.93,13.756,32.93,13.756Z" transform="translate(71.591 63.564)" fill="#cedeef"/>
      <path id="Path_770" data-name="Path 770" d="M112.958,32.667s-80.676,9.261-84.822,34.15c-4.51,27.036,86.285,80.54,86.285,80.54l6.25-4.405L85.965,89.071l26.086-39.647,20.1-7.5-7.978-8.773Z" transform="translate(119.963 163.712)" fill="#3158aa"/>
      <path id="Path_771" data-name="Path 771" d="M73.679,61.022l-2.431-2.69s-12.642,7.046-14.857,1.345-2.684-13.284-8.113-14.289-5.3-4.023-4.9-6.707,1.814-9.39-1.475-10.865-1.339-16.3,0-19.052,6.373-13.3,6.373-13.3l31.04-2.24L98.247,40.266,91.541,54.445,82.619,59.2Z" transform="translate(182.65 23.135)" fill="#f8b299"/>
      <path id="Path_772" data-name="Path 772" d="M196.326,87.377a3.686,3.686,0,0,1-3.69-3.683c0-8.582-28.7-20.552-75.438-20.552S41.755,75.111,41.755,83.693a3.683,3.683,0,1,1-7.367,0c0-8.348,8.909-15.5,25.777-20.663,15.289-4.683,35.544-7.262,57.034-7.262s41.745,2.579,57.027,7.262c16.868,5.164,25.784,12.315,25.784,20.663A3.681,3.681,0,0,1,196.326,87.377Z" transform="translate(153.129 283.144)" fill="#273240"/>
      <path id="Path_773" data-name="Path 773" d="M140.246,112.722a3.685,3.685,0,0,1-3.683-3.683c0-25.309-20.157-45.9-44.928-45.9s-44.928,20.589-44.928,45.9a3.686,3.686,0,0,1-7.373,0c0-29.374,23.464-53.27,52.3-53.27s52.3,23.9,52.3,53.27A3.69,3.69,0,0,1,140.246,112.722Z" transform="translate(178.694 283.144)" fill="#273240"/>
      <path id="Path_774" data-name="Path 774" d="M106.092,15.92s-20.453.148-27.567,5S50.539,143.2,50.539,143.2s6.793,35.02,11.081,39.228,16.165,6.873,16.7,6.633,19.133-11.834,19.293-12.475-5.9-26.024-5.9-26.024l-4.671-37.6s17.448-73.359,18.176-74S106.092,15.92,106.092,15.92Z" transform="translate(236.627 77.133)" fill="#ff6f00"/>
      <path id="Path_775" data-name="Path 775" d="M186.725,64.653s-3.511,34.878-54.368,32.725-55.01-1.851-55.01-1.851l16.362,80.682-7.157,2.684S24.027,95.372,29.272,69.329c4.757-23.661,92.312-23.859,92.312-23.859l20.021-13.586Z" transform="translate(125.064 159.669)" fill="#3d6ed4"/>
      <path id="Path_776" data-name="Path 776" d="M120.615,172.04c-17.022,11.716-74.691-24.253-78.868-27.943,0,0,17.22-35.674,13.2-52.826-3.443-14.7,3.264-31.651,10.7-48.76l-.006-.006-2.918-8.576,27-22.816,6.213,8.477s27.382,10.242,34.551,35.544C138.317,82.757,120.615,172.04,120.615,172.04Z" transform="translate(191.174 52.282)" fill="#3ace9c"/>
      <path id="Path_777" data-name="Path 777" d="M78.359,19.585S61.225,30.444,48.071,42.506l-.006-.006-2.918-8.576,27-22.81Z" transform="translate(208.751 52.287)" fill="#cedeef"/>
      <path id="Path_778" data-name="Path 778" d="M106.26,59.662a23.659,23.659,0,0,1-8-13.345c-1.746-8.65-10.532-3.819-10.871-.666V49.47H84.511s.265-11.062-7.447-11.735S84.243,23.121,74.6,20.84,50.873,38.707,48.2,25.8c-3.7-17.862,41.147-40.052,56.645-12.621S106.26,59.662,106.26,59.662Z" transform="translate(173.446 0)" fill="#273240"/>
      <path id="Path_779" data-name="Path 779" d="M62.529,157.5a146.488,146.488,0,0,1,4,19.509H81.995a154.2,154.2,0,0,0-4.609-23.39c-.4-1.542-.814-3.085-1.228-4.627-3.282-12.34-6.386-23.994-5.8-35.68.629-12.556,5.491-24.6,10.631-37.352q.907-2.258,1.808-4.5c5.732-14.4,11.649-31.238,9.279-48.889A7.679,7.679,0,0,0,76.855,24.61c1.876,13.968-3.313,28.572-8.323,41.159q-.888,2.221-1.783,4.442c-14.376,35.649-14.974,46.847-5.429,82.725C61.727,154.46,62.134,155.977,62.529,157.5Z" transform="translate(259.28 77.074)" fill="#ff8f00"/>
      <path id="Path_780" data-name="Path 780" d="M183.24,50.055s1.635,11.519-.882,13.931c-25.629,24.513-145.693,0-145.693,0s-2.986-13.759,0-16.658C54.044,30.429,183.24,50.055,183.24,50.055Z" transform="translate(158.035 204.023)" fill="#ff8f00"/>
      <rect id="Rectangle_410" data-name="Rectangle 410" width="7.373" height="28.498" transform="translate(259.759 277.678)" fill="#273240"/>
      <rect id="Rectangle_411" data-name="Rectangle 411" width="17.201" height="61.352" transform="translate(254.842 306.17)" fill="#cedeef"/>
      <path id="Path_781" data-name="Path 781" d="M61.941,79.756s5.436,7.249,5.5,9.248-5.5,3.517-5.5,3.517l-2.024-.895S41.92,103,36.682,99.765c-.95-.586-2.776-2.746-.432-4.442S48.17,91.8,50.527,89.264a73.6,73.6,0,0,0,4.257-6.824ZM83.807,50.542s7.083,5.645,7.651,7.57-4.436,4.782-4.436,4.782l-2.184-.352S70.283,78.078,64.4,76.264c-1.061-.327-3.375-1.956-1.536-4.183s10.649-6.417,12.29-9.464a73.216,73.216,0,0,0,2.4-7.669Z" transform="translate(156.832 256.122)" fill="#631010"/>
      <rect id="Rectangle_412" data-name="Rectangle 412" width="13.012" height="211.161" transform="translate(217.595 184.705)" fill="#001d39"/>
      <rect id="Rectangle_413" data-name="Rectangle 413" width="13.012" height="211.161" transform="translate(4.768 184.705)" fill="#001d39"/>
      <rect id="Rectangle_414" data-name="Rectangle 414" width="225.839" height="13.876" transform="translate(4.768 184.705)" fill="#ffc046"/>
      <path id="Path_782" data-name="Path 782" d="M152.943,46.126c-.74,19.62-17.584,65.832-32.083,71.755-17.337,7.034-84.8-15-84.8-15V95.423l65.61-6.663c4.208-19.1-.71-76.814,30.54-73.112C141.282,16.758,153.621,29.53,152.943,46.126Z" transform="translate(161.783 74.845)" fill="#2ea57d"/>
      <path id="Path_783" data-name="Path 783" d="M55.651,33.295v7.459l-9.168,2.338s-14.11-.7-14.209-5.127c-.062-4.448,13.771-4.671,13.771-4.671s-2.85-2.82-1.475-5.318C45.976,25.515,55.651,33.295,55.651,33.295Z" transform="translate(142.195 136.973)" fill="#f8b299"/>
    </g>
  </g>
</svg>
